<?xml version="1.0" standalone="no"?>
<!DOCTYPE svg PUBLIC "-//W3C//DTD SVG 1.1//EN" "http://www.w3.org/Graphics/SVG/1.1/DTD/svg11.dtd" >
<svg>
<metadata>
Created by FontForge 20090914 at Thu Feb 23 21:05:36 2012
 By root
Generated by Fontographer 4.1
</metadata>
<defs>
<font id="ADMONO" horiz-adv-x="486" >
  <font-face 
    font-family="A.D. MONO"
    font-weight="400"
    font-stretch="normal"
    units-per-em="1000"
    panose-1="0 0 4 0 0 0 0 0 0 0"
    ascent="800"
    descent="-200"
    x-height="796"
    cap-height="801"
    bbox="-79 -147 797 978"
    underline-thickness="20"
    underline-position="-123"
    unicode-range="U+0020-U+F002"
  />
<missing-glyph horiz-adv-x="500" 
d="M63 0v800h375v-800h-375zM125 63h250v675h-250v-675z" />
    <glyph glyph-name=".notdef" horiz-adv-x="500" 
d="M63 0v800h375v-800h-375zM125 63h250v675h-250v-675z" />
    <glyph glyph-name=".null" horiz-adv-x="0" 
 />
    <glyph glyph-name="nonmarkingreturn" horiz-adv-x="489" 
 />
    <glyph glyph-name="space" unicode=" " horiz-adv-x="489" 
 />
    <glyph glyph-name="exclam" unicode="!" horiz-adv-x="366" 
d="M8 47q0 20 14.5 34.5t34.5 14.5t34.5 -14.5t14.5 -34.5t-14.5 -34.5t-34.5 -14.5t-34.5 14.5t-14.5 34.5zM51 801q28 0 28 -27l-1 -572q30 9 50 34.5t20 57.5q0 28 27 28q28 0 28 -28q0 -62 -45 -106.5t-108 -44.5q-27 0 -27 28l1 603q0 27 27 27z" />
    <glyph glyph-name="quotedbl" unicode="&#x22;" horiz-adv-x="335" 
d="M76 805v-124q0 -25 -25 -25t-25 25v124q0 25 25 25t25 -25zM151 805v-124q0 -25 -25 -25t-25 25v124q0 25 25 25t25 -25z" />
    <glyph glyph-name="numbersign" unicode="#" horiz-adv-x="479" 
d="M122 206h60l1 60l-61 1v-61zM24 206h48l-1 61h-46q-25 0 -25 26t25 26h46v204q0 26 27 26q24 0 24 -24v-206h61v206q0 25 25 25t25 -25v-206h49q25 0 25 -27q0 -26 -25 -26h-49l-1 -60h50q25 0 25 -26q0 -27 -25 -26h-50v-127q0 -25 -25 -25t-25 25v127h-60v-127
q0 -25 -25 -25t-25 25v128h-47q-26 0 -26 26q0 25 25 25z" />
    <glyph glyph-name="dollar" unicode="$" horiz-adv-x="485" 
d="M180 493v-432q19 -5 40 -5h29v240q0 83 -6 114q-14 70 -63 83zM130 551v192q-42 -4 -59 -25.5t-17 -70.5v-96h76zM130 82v415h-103q-28 0 -28 27v123q0 141 131 151v27q0 25 25 25t25 -25v-28q124 -12 124 -150q0 -27 -27 -27q-28 0 -28 27q0 47 -15.5 69t-53.5 27v-194
q79 -12 108 -95q17 -50 17 -145l-1 -280q0 -27 -27 -27h-57q-92 0 -156.5 63.5t-64.5 154.5v56q0 27 28 27t29 -45q0 -9 -1 -23t-1 -15q0 -89 76 -138z" />
    <glyph glyph-name="percent" unicode="%" horiz-adv-x="476" 
d="M167 695q0 -35 -24.5 -59.5t-59.5 -24.5t-60 24.5t-25 59.5q0 36 25 60.5t60 24.5t59.5 -24.5t24.5 -60.5zM291 777l-241 -776q-6 -17 -23 -17q-26 0 -26 24q0 4 1 8l241 776q6 18 24 18q26 0 26 -24q0 -4 -2 -9zM311 102q0 -35 -24.5 -60t-59.5 -25t-60 25t-25 60t25 60
t60 25t59.5 -25t24.5 -60zM276 102q0 20 -14.5 34.5t-34.5 14.5t-34.5 -14.5t-14.5 -34.5q0 -21 14.5 -35t34.5 -14t34.5 14t14.5 35zM131 696q0 20 -14 34.5t-35 14.5q-20 0 -34.5 -14.5t-14.5 -34.5t14.5 -34.5t34.5 -14.5q21 0 35 14.5t14 34.5z" />
    <glyph glyph-name="ampersand" unicode="&#x26;" horiz-adv-x="482" 
d="M0 558v90q0 151 152 151q153 0 153 -151q0 -28 -28 -28h-222v-565h29q7 0 20 -1h20h27q40 0 68.5 28.5t28.5 68.5q0 39 -25 68.5t-64 32.5l-29 -29q-9 -8 -19 -8q-11 0 -19.5 8.5t-8.5 19.5t9 20l165 155q8 8 19 8q27 0 27 -26q0 -20 -36 -53l-64 -54q45 -17 72.5 -55.5
t27.5 -86.5q0 -63 -44.5 -107t-107.5 -44h-125q-26 0 -26 29v529zM248 675q-5 39 -26.5 54t-69.5 15t-69.5 -15.5t-26.5 -53.5h192zM124 54z" />
    <glyph glyph-name="quotesingle" unicode="'" horiz-adv-x="288" 
d="M102 805v-124q0 -25 -25 -25t-25 25v124q0 25 25 25t25 -25z" />
    <glyph glyph-name="parenleft" unicode="(" horiz-adv-x="440" 
d="M276 -25h-57q-89 0 -155 75q-64 72 -64 165v366q0 93 64 167.5t152 74.5h57q26 0 26 -26t-26 -26h-57q-67 0 -115.5 -59.5t-48.5 -130.5v-366q0 -71 49 -128q51 -60 118 -60h57q26 0 26 -26t-26 -26z" />
    <glyph glyph-name="parenright" unicode=")" horiz-adv-x="514" 
d="M66 -25h57q88 0 151 75q60 72 60 165v366q0 93 -62 167q-64 78 -152 78h-57q-26 0 -26 -26t26 -26h57q66 0 114 -61t48 -132v-366q0 -72 -45 -129q-48 -59 -114 -59h-57q-26 0 -26 -26t26 -26z" />
    <glyph glyph-name="asterisk" unicode="*" horiz-adv-x="454" 
d="M1 655q0 18 13 31t31 13q19 0 31.5 -13t12.5 -31t-12.5 -31t-31.5 -13q-18 0 -31 13t-13 31zM96 557q0 19 13 32t31 13t31 -13t13 -32q0 -18 -13 -31t-31 -13t-31 13t-13 31zM99 754q0 18 12.5 31t31.5 13q18 0 31 -13t13 -31t-13 -31t-31 -13q-19 0 -31.5 13t-12.5 31z
M196 656q0 18 13 31t31 13q19 0 31.5 -13t12.5 -31t-12.5 -31t-31.5 -13q-18 0 -31 13t-13 31zM115 654q0 27 26 27q27 0 27 -27q0 -26 -27 -26q-26 0 -26 26z" />
    <glyph glyph-name="plus" unicode="+" horiz-adv-x="452" 
d="M117 80v98h-92q-25 0 -25 25t25 25h92v92q0 25 25 25t25 -25v-92h97q25 0 25 -25t-25 -25h-97v-98q0 -25 -25 -25t-25 25z" />
    <glyph glyph-name="comma" unicode="," horiz-adv-x="274" 
d="M55 84q32 -32 32 -77t-32 -77q-8 -8 -18 -8q-25 0 -25 26q0 10 7 17q18 18 18 42t-18 41q-7 8 -7 18q0 25 25 25q10 0 18 -7z" />
    <glyph glyph-name="hyphen" unicode="-" horiz-adv-x="474" 
d="M25 173h239q25 0 25 -25t-25 -25h-239q-25 0 -25 25t25 25z" />
    <glyph glyph-name="hyphen" unicode="&#x2010;" horiz-adv-x="474" 
d="M25 173h239q25 0 25 -25t-25 -25h-239q-25 0 -25 25t25 25z" />
    <glyph glyph-name="period" unicode="." horiz-adv-x="284" 
d="M-1 50q0 20 14.5 34.5t34.5 14.5q21 0 35 -14.5t14 -34.5q0 -21 -14 -35t-35 -14q-20 0 -34.5 14t-14.5 35z" />
    <glyph glyph-name="slash" unicode="/" horiz-adv-x="443" 
d="M41 1q-5 -17 -23 -17q-26 0 -26 24q0 4 1 8l242 776q5 18 23 18q26 0 26 -24q0 -4 -1 -9z" />
    <glyph glyph-name="zero" unicode="0" horiz-adv-x="516" 
d="M270 607l-193 -513q17 -46 93 -46q54 0 77 21.5t23 78.5v459zM70 217l187 497q-20 34 -87 34q-55 0 -77.5 -21.5t-22.5 -78.5v-431zM-3 23l28 74q-5 23 -5 51v500q0 150 150 150q71 0 107 -31l12 32q6 17 22 17q26 0 26 -25q0 -4 -2 -9l-25 -67q10 -29 10 -67v-500
q0 -150 -150 -150q-79 0 -115 38l-11 -30q-7 -17 -23 -17q-26 0 -26 24q0 5 2 10z" />
    <glyph glyph-name="one" unicode="1" horiz-adv-x="473" 
d="M39 51h100v725q0 25 25 25t25 -25v-725h100q25 0 25 -25t-25 -25h-250q-25 0 -25 25t25 25z" />
    <glyph glyph-name="two" unicode="2" horiz-adv-x="458" 
d="M46 179q38 57 98.5 89.5t129.5 32.5q25 0 25 -25t-25 -25q-92 0 -158.5 -65t-66.5 -158q0 -28 -25 -28t-25 26v284q0 108 23 161q35 80 127 80h100v100q0 56 -22 78t-78 22q-65 0 -86 -32q-9 -14 -13 -61q-3 -32 -26 -32q-25 0 -25 25q0 150 150 150t150 -150v-125
q0 -25 -25 -25h-125q-72 0 -92 -84q-8 -33 -8 -141q0 -44 -3 -97z" />
    <glyph glyph-name="three" unicode="3" horiz-adv-x="492" 
d="M158 751q-66 0 -86 -33q-9 -14 -13 -60q-3 -32 -26 -32q-25 0 -25 25q0 150 150 150t150 -150v-74q0 -25 -25 -25t-25 25q0 106 -6 124q-16 50 -94 50zM302 276v-250q0 -25 -25 -25h-57q-90 0 -154 63.5t-64 154.5v57q0 25 25 25t25 -25v-57q0 -70 49.5 -119t118.5 -49
h32v225q0 224 -100 224h-84q-25 0 -25 25q0 14 25 25l72 1h52q64 -1 92 -105q18 -69 18 -170z" />
    <glyph glyph-name="four" unicode="4" horiz-adv-x="499" 
d="M333 401v-48q-1 -44 -29.5 -96t-67.5 -78v-164q0 -25 -26 -25q-25 0 -24 25l1 141q-49 -27 -105 -27h-58q-25 0 -25 25v625q0 25 25 25t25 -25v-600h33q59 0 105 37v438q0 25 25 25t25 -25l-1 -411q53 53 54 110v48q0 25 22 25t21 -25z" />
    <glyph glyph-name="five" unicode="5" horiz-adv-x="480" 
d="M49 276v-57q0 -70 49.5 -119t118.5 -49h32v100q0 108 -7 141q-20 84 -93 84l-150 -1l72 300l78 1q42 0 71 29.5t29 70.5q0 25 25 25t25 -25q0 -62 -44 -106t-106 -44h-43l-50 -200h93q102 0 134 -97q16 -51 16 -178v-125q0 -25 -25 -25h-57q-90 0 -154 63.5t-64 154.5v57
q0 25 25 25t25 -25z" />
    <glyph glyph-name="six" unicode="6" horiz-adv-x="479" 
d="M249 51v126q0 106 -8 139q-19 83 -92 86l-38 1q-25 1 -25 26t25 24l38 -1q102 -4 133 -100q17 -50 17 -175v-151q0 -25 -25 -25h-57q-90 0 -154 63.5t-64 154.5v432q0 150 150 150t150 -150q0 -25 -25 -25t-25 25q0 57 -22.5 78.5t-77.5 21.5q-53 0 -75 -20
q-25 -22 -25 -80v-432q0 -70 49.5 -119t118.5 -49h32z" />
    <glyph glyph-name="seven" unicode="7" horiz-adv-x="465" 
d="M1 775q0 11 6 18q-6 -7 -6 -18zM26 800h250q25 0 25 -25q0 -22 -21 -25q-21 -10 -43 -77q-61 -183 -61 -648q0 -25 -25 -25t-25 25q0 566 89 725h-164v-100q0 -25 -25 -25t-25 25v125q0 25 25 25z" />
    <glyph glyph-name="eight" unicode="8" horiz-adv-x="478" 
d="M56 51h93q55 0 77.5 21.5t22.5 78.5v125q0 102 -6 132q-15 81 -75 91zM180 751h-31q-54 0 -77 -21.5t-23 -78.5q0 -79 8 -90t73 -10zM253 753l-22 -2l-50 -203q81 -14 105 -106q13 -49 13 -166v-125q0 -150 -150 -150h-122q-15 0 -22 9t-5 19q0 2 1 6l116 466
q-80 2 -99 27t-19 123q0 150 150 150h60h4l40 2q25 2 25 -23q0 -24 -25 -27z" />
    <glyph glyph-name="nine" unicode="9" horiz-adv-x="481" 
d="M299 148q0 -150 -150 -150t-150 150q0 25 25 25t25 -25q0 -57 23 -78.5t77 -21.5t77 21t23 79v600h-32q-69 0 -118.5 -49t-49.5 -119v-57q0 -121 15 -164q20 -62 85 -61l40 1q25 0 25 -25t-25 -25l-40 -1q-101 -2 -133 96q-17 51 -17 179v57q0 90 64 154t154 64h57
q25 0 25 -25v-625z" />
    <glyph glyph-name="colon" unicode=":" horiz-adv-x="281" 
d="M-1 50q0 20 14.5 34.5t34.5 14.5q21 0 35 -14.5t14 -34.5q0 -21 -14 -35t-35 -14q-20 0 -34.5 14t-14.5 35zM5 277q0 21 14.5 35t34.5 14t34.5 -14t14.5 -35q0 -20 -14.5 -34.5t-34.5 -14.5t-34.5 14.5t-14.5 34.5z" />
    <glyph glyph-name="semicolon" unicode=";" horiz-adv-x="275" 
d="M2 277q0 21 14.5 35t34.5 14t34.5 -14t14.5 -35q0 -20 -14.5 -34.5t-34.5 -14.5t-34.5 14.5t-14.5 34.5zM55 84q32 -32 32 -77t-32 -77q-8 -8 -18 -8q-25 0 -25 26q0 10 7 17q18 18 18 42t-18 41q-7 8 -7 18q0 25 25 25q10 0 18 -7z" />
    <glyph glyph-name="less" unicode="&#x3c;" horiz-adv-x="589" 
d="M396 3q-22 0 -22 23q0 144 -102 245.5t-246 101.5q-23 0 -23 23q0 3 1 6q-4 26 22 26q144 0 246 102t102 246q0 22 22 22q23 0 23 -22q0 -130 -77 -233.5t-200 -141.5q123 -38 200 -142t77 -233q0 -23 -23 -23z" />
    <glyph glyph-name="equal" unicode="=" horiz-adv-x="462" 
d="M25 279h239q25 0 25 -25t-25 -25h-239q-25 0 -25 25t25 25zM25 173h239q25 0 25 -25t-25 -25h-239q-25 0 -25 25t25 25z" />
    <glyph glyph-name="greater" unicode="&#x3e;" horiz-adv-x="550" 
d="M393 373q-143 0 -245 -101.5t-102 -245.5q0 -23 -23 -23q-22 0 -22 23q0 129 77 233t199 142q-123 38 -199.5 141.5t-76.5 233.5q0 22 22 22q23 0 23 -22q0 -144 101.5 -246t245.5 -102q26 0 22 -26q1 -3 1 -6q0 -23 -23 -23z" />
    <glyph glyph-name="question" unicode="?" horiz-adv-x="496" 
d="M199 57q0 -23 -16.5 -40t-40.5 -17t-41 17t-17 40q0 24 17 41t41 17t40.5 -17t16.5 -41zM324 515q0 -27 -26 -27h-129q-45 0 -61 -54q-10 -36 -10 -114q0 -71 0 -70l2 -33q112 17 112 162q0 27 27 27q26 0 26 -27q0 -101 -46 -158q-50 -63 -148 -63q-28 0 -29 24l-5 75
q-2 37 -2 69q0 125 32 170.5t102 45.5h102v102q0 56 -22.5 78.5t-79.5 22.5t-79.5 -22.5t-22.5 -78.5q0 -27 -27 -27q-26 0 -26 27q0 155 155 155t155 -155v-129z" />
    <glyph glyph-name="at" unicode="@" horiz-adv-x="472" 
d="M144 7q-145 0 -145 145v500q0 145 145 145t145 -145v-375q0 -22 -15 -38.5t-37 -16.5q-19 0 -32 12q-20 -19 -61 -19q-82 0 -82 83v250q0 82 82 82q83 0 83 -82v-272q0 -15 12 -15q10 0 10 16v375q0 58 -23.5 81.5t-81.5 23.5t-81.5 -23.5t-23.5 -81.5v-500
q0 -58 23.5 -81.5t81.5 -23.5q105 0 105 91v18q-1 11 -1 15q0 34 21 34q17 0 20 -21v-32q2 -145 -145 -145zM187 548q0 25 -9.5 33.5t-33.5 8.5q-25 0 -33.5 -9t-8.5 -33v-250q0 -25 9 -34t33 -9q25 0 34 9.5t9 33.5v250z" />
    <glyph glyph-name="A" unicode="A" horiz-adv-x="489" 
d="M279 -4q-27 0 -27 28v472h-195v-472q0 -27 -28 -27q-27 0 -27 27v557q0 91 64.5 155.5t155.5 64.5h57q28 0 28 -27v-750q0 -28 -28 -28zM252 746h-30q-68 0 -116.5 -48t-48.5 -117v-30h195v195z" />
    <glyph glyph-name="B" unicode="B" horiz-adv-x="475" 
d="M306 223q0 -91 -64.5 -154.5t-155.5 -63.5h-57q-28 0 -28 27v742q0 28 28 28q152 0 152 -151q0 -88 -35 -123q69 -30 114.5 -99.5t45.5 -149.5v-56zM56 493v-434h30q68 0 116.5 48t48.5 116v56q0 83 -56.5 146.5t-124.5 63.5q-8 0 -14 4zM56 551q6 3 14 3q37 0 49 32
q7 18 7 65q0 46 -15 68t-55 27v-195z" />
    <glyph glyph-name="C" unicode="C" horiz-adv-x="467" 
d="M305 223q0 -90 -64.5 -154t-155.5 -64h-58q-27 0 -27 27v619q0 151 152 151q153 0 153 -151q0 -27 -28 -27q-27 0 -27 27q0 54 -21.5 75.5t-76.5 21.5t-76 -21t-21 -76v-592h30q68 0 116.5 48t48.5 116q0 1 -1 15t-1 23q1 46 29 46t29 -46q1 -9 0 -22q-1 -15 -1 -16z" />
    <glyph glyph-name="D" unicode="D" horiz-adv-x="483" 
d="M191 4q-15 -2 -41 -2h-125q-27 0 -27 27v742q0 28 27 28h57q92 0 156.5 -64t64.5 -154v-428q0 -133 -112 -149zM248 581q0 67 -48.5 115t-117.5 48h-29v-688h97q53 0 75.5 20.5t22.5 76.5v428z" />
    <glyph glyph-name="E" unicode="E" horiz-adv-x="468" 
d="M305 220q0 -91 -64.5 -154.5t-155.5 -63.5h-58q-27 0 -27 27v619q0 151 152 151q153 0 153 -151q0 -28 -28 -28h-222v-564h30q68 0 116.5 48t48.5 116q0 1 -1 15t-1 23q1 46 29 46q29 0 29 -46q1 -9 0 -23t-1 -15zM152 744q-48 0 -69.5 -15.5t-26.5 -53.5h192
q-5 39 -26.5 54t-69.5 15z" />
    <glyph glyph-name="F" unicode="F" horiz-adv-x="457" 
d="M277 620q-28 0 -28 27q0 55 -21.5 76t-75.5 21q-55 0 -76.5 -21t-21.5 -76v-96h223q27 0 27 -28q0 -27 -27 -27h-223v-467q0 -28 -28 -28q-27 0 -27 28v618q0 151 153 151q152 0 152 -151q0 -27 -27 -27z" />
    <glyph glyph-name="G" unicode="G" horiz-adv-x="465" 
d="M304 223q0 -90 -64.5 -154t-155.5 -64h-57q-28 0 -28 27v619q0 151 153 151q152 0 152 -151q0 -27 -27 -27q-28 0 -28 27q0 55 -21.5 76t-75.5 21q-53 0 -74 -19q-24 -22 -24 -78v-592h30q69 0 117 48t48 116v30l-113 -1q-27 0 -27 27t27 27l141 1q27 0 27 -27v-57z" />
    <glyph glyph-name="H" unicode="H" horiz-adv-x="487" 
d="M277 -3q-28 0 -28 28v467h-30q-68 0 -116.5 -48t-48.5 -115v-304q0 -28 -27 -28q-28 0 -28 28v742q0 27 28 27q27 0 27 -27v-294q66 74 165 74h30v220q0 27 28 27q27 0 27 -27v-742q0 -28 -27 -28z" />
    <glyph glyph-name="I" unicode="I" horiz-adv-x="368" 
d="M158 4q-28 0 -28 28v711q-30 -9 -50 -35t-20 -58q0 -27 -27 -27q-28 0 -28 27q0 63 45 107t108 44q27 0 27 -27v-742q0 -28 -27 -28z" />
    <glyph glyph-name="J" unicode="J" horiz-adv-x="489" 
d="M279 1h-58q-91 0 -155.5 64t-64.5 154v56q0 28 28 28t29 -46q0 -9 -1 -23t-1 -15q0 -68 48.5 -116t116.5 -48h30v715q0 28 28 28q27 0 27 -28v-742q0 -27 -27 -27z" />
    <glyph glyph-name="K" unicode="K" horiz-adv-x="483" 
d="M300 539l-7 6q12 -4 12 -21q0 -19 -26 -22q1 0 -40 0q-70 0 -127 -51.5t-57 -117.5v-304q0 -27 -27 -27q-28 0 -28 27v743q0 27 28 27q27 0 27 -27v-295q63 69 165 74q59 3 80 -12zM277 2q-19 0 -25 19q-127 375 -127 380q0 27 28 27q19 0 26 -19q126 -376 126 -380
q0 -27 -28 -27z" />
    <glyph glyph-name="L" unicode="L" horiz-adv-x="457" 
d="M306 218q0 -90 -64.5 -154t-155.5 -64h-58q-27 0 -27 27v743q0 27 27 27q28 0 28 -27v-716h30q68 0 116.5 48t48.5 116q0 1 -1 15t-1 23q1 46 29 46t29 -46v-22q-1 -15 -1 -16z" />
    <glyph glyph-name="M" unicode="M" horiz-adv-x="483" 
d="M276 4q-28 0 -28 28v551q0 85 -70 134v-314q0 -27 -27 -27q-28 0 -28 27v339q-19 5 -40 5h-30v-715q0 -28 -27 -28q-28 0 -28 28v742q0 27 28 27h57q91 0 155.5 -64t64.5 -154v-551q0 -28 -27 -28z" />
    <glyph glyph-name="N" unicode="N" horiz-adv-x="484" 
d="M276 3q-27 0 -27 27v551q0 68 -48.5 116t-116.5 48h-30v-715q0 -27 -28 -27q-27 0 -27 27v742q0 27 27 27h58q91 0 155.5 -63.5t64.5 -154.5v-551q0 -27 -28 -27z" />
    <glyph glyph-name="O" unicode="O" 
d="M151 1q-153 0 -153 151v495q0 151 153 151q152 0 152 -151v-495q0 -151 -152 -151zM248 647q0 55 -21 76t-76 21t-76.5 -21t-21.5 -76v-495q0 -54 21.5 -75t76.5 -21t76 21t21 75v495z" />
    <glyph glyph-name="P" unicode="P" horiz-adv-x="458" 
d="M152 497q-27 0 -27 28q0 27 27 27q40 0 69 28t29 68t-29 68.5t-69 28.5h-97v-715q0 -28 -28 -28q-27 0 -27 28v742q0 27 27 27h125q63 0 108 -44t45 -107q0 -62 -45 -106.5t-108 -44.5z" />
    <glyph glyph-name="Q" unicode="Q" 
d="M303 152q0 -151 -152 -151q-153 0 -153 151v495q0 151 153 151q152 0 152 -151v-495zM248 174h-195v-22q0 -54 21.5 -75t76.5 -21t76 21t21 75v22zM53 228h195v419q0 55 -21 76t-76 21t-76.5 -21t-21.5 -76v-419z" />
    <glyph glyph-name="R" unicode="R" horiz-adv-x="463" 
d="M162 549q38 3 63.5 32.5t25.5 68.5q0 40 -28.5 68.5t-68.5 28.5h-98v-716q0 -27 -27 -27q-28 0 -28 27v743q0 27 28 27h125q63 0 107.5 -44t44.5 -107q0 -48 -27.5 -87t-72.5 -55l64 -54q36 -33 36 -53q0 -26 -28 -26q-10 0 -18 8l-165 155q-9 9 -9 19q0 12 8.5 20.5
t19.5 8.5q10 0 18 -8z" />
    <glyph glyph-name="S" unicode="S" horiz-adv-x="484" 
d="M304 29q0 -27 -27 -27h-57q-92 0 -156.5 63.5t-64.5 154.5v56q0 27 28 27t29 -45q0 -9 -1 -23t-1 -15q0 -68 48.5 -116t117.5 -48h29v240q0 98 -12 136q-20 65 -85 65h-125q-28 0 -28 27v123q0 151 153 151q152 0 152 -151q0 -27 -27 -27q-28 0 -28 27q0 55 -21 76
t-76 21t-76.5 -21t-21.5 -76v-96h98q97 0 132 -87q21 -52 21 -155z" />
    <glyph glyph-name="T" unicode="T" horiz-adv-x="466" 
d="M179 524v-495q0 -27 -28 -27q-27 0 -27 27v495q0 81 3 113q8 68 35 107h-136q-27 0 -27 27q0 28 27 28h250q29 0 29 -28q0 -27 -29 -27q-63 0 -83 -59q-14 -42 -14 -161z" />
    <glyph glyph-name="U" unicode="U" horiz-adv-x="488" 
d="M278 -1h-58q-91 0 -155.5 64t-64.5 154v552q0 27 28 27q27 0 27 -27v-552q0 -67 48.5 -115t116.5 -48h30v715q0 27 28 27q27 0 27 -27v-742q0 -28 -27 -28z" />
    <glyph glyph-name="V" unicode="V" horiz-adv-x="484" 
d="M302 218q0 -90 -64.5 -154t-155.5 -64h-57q-28 0 -28 27v743q0 27 28 27q27 0 27 -27v-716h30q68 0 116.5 48t48.5 116v552q0 27 28 27q27 0 27 -27v-552z" />
    <glyph glyph-name="W" unicode="W" horiz-adv-x="487" 
d="M305 217q0 -90 -64.5 -154t-155.5 -64h-57q-28 0 -28 27v743q0 27 28 27q27 0 27 -27v-715h30q20 0 40 4v340q0 27 28 27q27 0 27 -27v-315q70 49 70 134v552q0 27 28 27q27 0 27 -27v-552z" />
    <glyph glyph-name="X" unicode="X" horiz-adv-x="482" 
d="M302 28q0 -27 -27 -27q-28 0 -28 27v247q0 99 -5 128q-14 81 -71 91l-119 -473q-6 -20 -27 -20q-13 0 -21.5 10t-5.5 23l118 465q-76 14 -103 98q-16 49 -16 141q0 30 2 37q5 23 26 23q27 0 27 -28q0 -99 6 -127q14 -81 71 -91l57 225q5 21 26 21q27 0 27 -32
q0 -25 -18 -88q-33 -116 -37 -131q76 -15 103 -98q16 -49 16 -141z" />
    <glyph glyph-name="Y" unicode="Y" horiz-adv-x="488" 
d="M305 27q0 -27 -27 -27h-58q-91 0 -154.5 63.5t-65.5 154.5v23q-1 27 27 27q27 0 28 -27v-23q1 -68 49 -116t116 -48h30v193h-30q-91 0 -155.5 64t-64.5 154v304q0 27 28 27q27 0 27 -27v-304q0 -68 48.5 -116t116.5 -48h30v468q0 27 28 27q27 0 27 -27v-742z" />
    <glyph glyph-name="Z" unicode="Z" horiz-adv-x="476" 
d="M302 218q0 -90 -64.5 -154t-155.5 -64h-57q-28 0 -28 27q0 4 2 9l238 707h-20q-68 0 -116.5 -48t-48.5 -116v-56q0 -28 -27 -28q-28 0 -28 28v56q0 91 64.5 154.5t155.5 63.5h58q27 0 27 -26q0 -5 -1 -10l-238 -706h19q69 0 117 48t48 115v57q0 27 28 27q27 0 27 -27v-57
z" />
    <glyph glyph-name="bracketleft" unicode="[" horiz-adv-x="341" 
d="M151 -5q28 0 28 28q0 27 -28 27q-55 0 -76 21.5t-21 76.5v500q0 55 21 76t76 21q28 0 28 28q0 27 -28 27q-152 0 -152 -152v-500q0 -153 152 -153z" />
    <glyph glyph-name="backslash" unicode="\" horiz-adv-x="448" 
d="M241 4q5 -17 23 -17q26 0 26 24q0 4 -2 8l-241 776q-5 18 -23 18q-26 0 -26 -25q0 -4 1 -8z" />
    <glyph glyph-name="bracketright" unicode="]" horiz-adv-x="365" 
d="M32 -2q-28 0 -28 28q0 27 28 27q55 0 76 21.5t21 76.5v500q0 55 -21 76t-76 21q-28 0 -28 28q0 27 28 27q152 0 152 -152v-500q0 -153 -152 -153z" />
    <glyph glyph-name="asciicircum" unicode="^" horiz-adv-x="322" 
d="M104 58q26 0 26 -42q0 -31 17 -44q8 -6 30 -10t22 -24q0 -19 -23 -19q-46 0 -72 30q-12 -14 -35 -23.5t-41 -7.5t-18 19q0 16 17 23q29 11 33 13q18 14 18 46q0 39 26 39zM105 57z" />
    <glyph glyph-name="underscore" unicode="_" horiz-adv-x="502" 
d="M-3 -6h515q25 0 25 -25t-25 -25h-515q-25 0 -25 25t25 25z" />
    <glyph glyph-name="grave" unicode="`" horiz-adv-x="221" 
d="M127 929q0 -35 26 -70t59 -35q25 0 25 26q0 17 -18 23q-42 12 -42 56q0 5 2 13t2 12q0 24 -26 24q-18 0 -23 -16.5t-5 -32.5z" />
    <glyph glyph-name="a" unicode="a" 
d="M276 -4q-27 0 -27 28v472h-195v-472q0 -27 -28 -27q-27 0 -27 27v557q0 91 64.5 155.5t155.5 64.5h57q28 0 28 -27v-750q0 -28 -28 -28zM249 746h-30q-68 0 -116.5 -48t-48.5 -117v-30h195v195z" />
    <glyph glyph-name="b" unicode="b" horiz-adv-x="477" 
d="M306 223q0 -91 -64.5 -154.5t-155.5 -63.5h-57q-28 0 -28 27v742q0 28 28 28q152 0 152 -151q0 -88 -35 -123q69 -30 114.5 -99.5t45.5 -149.5v-56zM56 493v-434h30q68 0 116.5 48t48.5 116v56q0 83 -56.5 146.5t-124.5 63.5q-8 0 -14 4zM56 551q6 3 14 3q37 0 49 32
q7 18 7 65q0 46 -15 68t-55 27v-195z" />
    <glyph glyph-name="c" unicode="c" horiz-adv-x="467" 
d="M305 223q0 -90 -64.5 -154t-155.5 -64h-58q-27 0 -27 27v619q0 151 152 151q153 0 153 -151q0 -27 -28 -27q-27 0 -27 27q0 54 -21.5 75.5t-76.5 21.5t-76 -21t-21 -76v-592h30q68 0 116.5 48t48.5 116q0 1 -1 15t-1 23q1 46 29 46t29 -46q1 -9 0 -22q-1 -15 -1 -16z" />
    <glyph glyph-name="d" unicode="d" horiz-adv-x="483" 
d="M191 4q-15 -2 -41 -2h-125q-27 0 -27 27v742q0 28 27 28h57q92 0 156.5 -64t64.5 -154v-428q0 -133 -112 -149zM248 581q0 67 -48.5 115t-117.5 48h-29v-688h97q53 0 75.5 20.5t22.5 76.5v428z" />
    <glyph glyph-name="e" unicode="e" horiz-adv-x="468" 
d="M305 220q0 -91 -64.5 -154.5t-155.5 -63.5h-58q-27 0 -27 27v619q0 151 152 151q153 0 153 -151q0 -28 -28 -28h-222v-564h30q68 0 116.5 48t48.5 116q0 1 -1 15t-1 23q1 46 29 46q29 0 29 -46q1 -9 0 -23t-1 -15zM152 744q-48 0 -69.5 -15.5t-26.5 -53.5h192
q-5 39 -26.5 54t-69.5 15z" />
    <glyph glyph-name="f" unicode="f" horiz-adv-x="457" 
d="M277 620q-28 0 -28 27q0 55 -21.5 76t-75.5 21q-55 0 -76.5 -21t-21.5 -76v-96h223q27 0 27 -28q0 -27 -27 -27h-223v-467q0 -28 -28 -28q-27 0 -27 28v618q0 151 153 151q152 0 152 -151q0 -27 -27 -27z" />
    <glyph glyph-name="g" unicode="g" horiz-adv-x="465" 
d="M304 223q0 -90 -64.5 -154t-155.5 -64h-57q-28 0 -28 27v619q0 151 153 151q152 0 152 -151q0 -27 -27 -27q-28 0 -28 27q0 55 -21.5 76t-75.5 21q-53 0 -74 -19q-24 -22 -24 -78v-592h30q69 0 117 48t48 116v30l-113 -1q-27 0 -27 27t27 27l141 1q27 0 27 -27v-57z" />
    <glyph glyph-name="h" unicode="h" horiz-adv-x="487" 
d="M277 -3q-28 0 -28 28v467h-30q-68 0 -116.5 -48t-48.5 -115v-304q0 -28 -27 -28q-28 0 -28 28v742q0 27 28 27q27 0 27 -27v-294q66 74 165 74h30v220q0 27 28 27q27 0 27 -27v-742q0 -28 -27 -28z" />
    <glyph glyph-name="i" unicode="i" horiz-adv-x="368" 
d="M158 4q-28 0 -28 28v711q-30 -9 -50 -35t-20 -58q0 -27 -27 -27q-28 0 -28 27q0 63 45 107t108 44q27 0 27 -27v-742q0 -28 -27 -28z" />
    <glyph glyph-name="j" unicode="j" horiz-adv-x="489" 
d="M279 1h-58q-91 0 -155.5 64t-64.5 154v56q0 28 28 28t29 -46q0 -9 -1 -23t-1 -15q0 -68 48.5 -116t116.5 -48h30v715q0 28 28 28q27 0 27 -28v-742q0 -27 -27 -27z" />
    <glyph glyph-name="k" unicode="k" horiz-adv-x="483" 
d="M300 539l-7 6q12 -4 12 -21q0 -19 -26 -22q1 0 -40 0q-70 0 -127 -51.5t-57 -117.5v-304q0 -27 -27 -27q-28 0 -28 27v743q0 27 28 27q27 0 27 -27v-295q63 69 165 74q59 3 80 -12zM277 2q-19 0 -25 19q-127 375 -127 380q0 27 28 27q19 0 26 -19q126 -376 126 -380
q0 -27 -28 -27z" />
    <glyph glyph-name="l" unicode="l" horiz-adv-x="457" 
d="M306 218q0 -90 -64.5 -154t-155.5 -64h-58q-27 0 -27 27v743q0 27 27 27q28 0 28 -27v-716h30q68 0 116.5 48t48.5 116q0 1 -1 15t-1 23q1 46 29 46t29 -46v-22q-1 -15 -1 -16z" />
    <glyph glyph-name="m" unicode="m" horiz-adv-x="483" 
d="M276 4q-28 0 -28 28v551q0 85 -70 134v-314q0 -27 -27 -27q-28 0 -28 27v339q-19 5 -40 5h-30v-715q0 -28 -27 -28q-28 0 -28 28v742q0 27 28 27h57q91 0 155.5 -64t64.5 -154v-551q0 -28 -27 -28z" />
    <glyph glyph-name="n" unicode="n" horiz-adv-x="484" 
d="M276 3q-27 0 -27 27v551q0 68 -48.5 116t-116.5 48h-30v-715q0 -27 -28 -27q-27 0 -27 27v742q0 27 27 27h58q91 0 155.5 -63.5t64.5 -154.5v-551q0 -27 -28 -27z" />
    <glyph glyph-name="o" unicode="o" 
d="M151 1q-153 0 -153 151v495q0 151 153 151q152 0 152 -151v-495q0 -151 -152 -151zM248 647q0 55 -21 76t-76 21t-76.5 -21t-21.5 -76v-495q0 -54 21.5 -75t76.5 -21t76 21t21 75v495z" />
    <glyph glyph-name="p" unicode="p" horiz-adv-x="458" 
d="M152 497q-27 0 -27 28q0 27 27 27q40 0 69 28t29 68t-29 68.5t-69 28.5h-97v-715q0 -28 -28 -28q-27 0 -27 28v742q0 27 27 27h125q63 0 108 -44t45 -107q0 -62 -45 -106.5t-108 -44.5z" />
    <glyph glyph-name="q" unicode="q" 
d="M303 152q0 -151 -152 -151q-153 0 -153 151v495q0 151 153 151q152 0 152 -151v-495zM248 174h-195v-22q0 -54 21.5 -75t76.5 -21t76 21t21 75v22zM53 228h195v419q0 55 -21 76t-76 21t-76.5 -21t-21.5 -76v-419z" />
    <glyph glyph-name="r" unicode="r" horiz-adv-x="463" 
d="M162 549q38 3 63.5 32.5t25.5 68.5q0 40 -28.5 68.5t-68.5 28.5h-98v-716q0 -27 -27 -27q-28 0 -28 27v743q0 27 28 27h125q63 0 107.5 -44t44.5 -107q0 -48 -27.5 -87t-72.5 -55l64 -54q36 -33 36 -53q0 -26 -28 -26q-10 0 -18 8l-165 155q-9 9 -9 19q0 12 8.5 20.5
t19.5 8.5q10 0 18 -8z" />
    <glyph glyph-name="s" unicode="s" horiz-adv-x="484" 
d="M304 29q0 -27 -27 -27h-57q-92 0 -156.5 63.5t-64.5 154.5v56q0 27 28 27t29 -45q0 -9 -1 -23t-1 -15q0 -68 48.5 -116t117.5 -48h29v240q0 98 -12 136q-20 65 -85 65h-125q-28 0 -28 27v123q0 151 153 151q152 0 152 -151q0 -27 -27 -27q-28 0 -28 27q0 55 -21 76
t-76 21t-76.5 -21t-21.5 -76v-96h98q97 0 132 -87q21 -52 21 -155z" />
    <glyph glyph-name="t" unicode="t" horiz-adv-x="466" 
d="M179 524v-495q0 -27 -28 -27q-27 0 -27 27v495q0 81 3 113q8 68 35 107h-136q-27 0 -27 27q0 28 27 28h250q29 0 29 -28q0 -27 -29 -27q-63 0 -83 -59q-14 -42 -14 -161z" />
    <glyph glyph-name="u" unicode="u" horiz-adv-x="488" 
d="M278 -1h-58q-91 0 -155.5 64t-64.5 154v552q0 27 28 27q27 0 27 -27v-552q0 -67 48.5 -115t116.5 -48h30v715q0 27 28 27q27 0 27 -27v-742q0 -28 -27 -28z" />
    <glyph glyph-name="v" unicode="v" horiz-adv-x="484" 
d="M302 218q0 -90 -64.5 -154t-155.5 -64h-57q-28 0 -28 27v743q0 27 28 27q27 0 27 -27v-716h30q68 0 116.5 48t48.5 116v552q0 27 28 27q27 0 27 -27v-552z" />
    <glyph glyph-name="w" unicode="w" horiz-adv-x="487" 
d="M305 217q0 -90 -64.5 -154t-155.5 -64h-57q-28 0 -28 27v743q0 27 28 27q27 0 27 -27v-715h30q20 0 40 4v340q0 27 28 27q27 0 27 -27v-315q70 49 70 134v552q0 27 28 27q27 0 27 -27v-552z" />
    <glyph glyph-name="x" unicode="x" horiz-adv-x="482" 
d="M302 28q0 -27 -27 -27q-28 0 -28 27v247q0 99 -5 128q-14 81 -71 91l-119 -473q-6 -20 -27 -20q-13 0 -21.5 10t-5.5 23l118 465q-76 14 -103 98q-16 49 -16 141q0 30 2 37q5 23 26 23q27 0 27 -28q0 -99 6 -127q14 -81 71 -91l57 225q5 21 26 21q27 0 27 -32
q0 -25 -18 -88q-33 -116 -37 -131q76 -15 103 -98q16 -49 16 -141z" />
    <glyph glyph-name="y" unicode="y" horiz-adv-x="488" 
d="M305 27q0 -27 -27 -27h-58q-91 0 -154.5 63.5t-65.5 154.5v23q-1 27 27 27q27 0 28 -27v-23q1 -68 49 -116t116 -48h30v193h-30q-91 0 -155.5 64t-64.5 154v304q0 27 28 27q27 0 27 -27v-304q0 -68 48.5 -116t116.5 -48h30v468q0 27 28 27q27 0 27 -27v-742z" />
    <glyph glyph-name="z" unicode="z" horiz-adv-x="476" 
d="M302 218q0 -90 -64.5 -154t-155.5 -64h-57q-28 0 -28 27q0 4 2 9l238 707h-20q-68 0 -116.5 -48t-48.5 -116v-56q0 -28 -27 -28q-28 0 -28 28v56q0 91 64.5 154.5t155.5 63.5h58q27 0 27 -26q0 -5 -1 -10l-238 -706h19q69 0 117 48t48 115v57q0 27 28 27q27 0 27 -27v-57
z" />
    <glyph glyph-name="braceleft" unicode="{" horiz-adv-x="524" 
d="M344 1h-57q-91 0 -155.5 64.5t-64.5 155.5v156h-35q-27 0 -27 28q0 27 27 27h35v155q0 91 64.5 155t155.5 64h57q27 0 27 -27q0 -28 -27 -28h-57q-68 0 -116.5 -48t-48.5 -116v-155h35q27 0 27 -27q0 -28 -27 -28h-35v-156q0 -68 48.5 -116.5t116.5 -48.5h57q27 0 27 -27
q0 -28 -27 -28z" />
    <glyph glyph-name="bar" unicode="|" horiz-adv-x="258" 
d="M21 27v749q0 27 27 27q28 0 28 -27v-749q0 -28 -28 -28q-27 0 -27 28z" />
    <glyph glyph-name="braceright" unicode="}" horiz-adv-x="544" 
d="M32 1h57q91 0 155.5 64.5t64.5 155.5v156h35q27 0 27 28q0 27 -27 27h-35v155q0 91 -64.5 155t-155.5 64h-57q-27 0 -27 -27q0 -28 27 -28h57q69 0 117 -48t48 -116v-155h-35q-27 0 -27 -27q0 -28 27 -28h35v-156q0 -68 -48 -116.5t-117 -48.5h-57q-27 0 -27 -27
q0 -28 27 -28z" />
    <glyph glyph-name="asciitilde" unicode="~" horiz-adv-x="287" 
d="M-22 879q28 48 98 48q34 0 74 -19q43 -22 62 -24q35 -4 51 15q8 9 18 9q26 0 26 -25q0 -24 -40 -39q-34 -12 -60 -10q-22 3 -59 22t-57 21q-53 5 -70 -24q-7 -12 -21 -12q-26 0 -26 25q0 6 4 13z" />
    <glyph glyph-name="Adieresis" unicode="&#xc4;" 
d="M276 -4q-27 0 -27 28v472h-195v-472q0 -27 -28 -27q-27 0 -27 27v557q0 91 64.5 155.5t155.5 64.5h57q28 0 28 -27v-750q0 -28 -28 -28zM249 746h-30q-68 0 -116.5 -48t-48.5 -117v-30h195v195zM47 857q0 15 10.5 25t24.5 10q15 0 25 -10t10 -25t-10 -25t-25 -10
q-14 0 -24.5 10t-10.5 25zM203 858q0 15 10 25t25 10t25 -10t10 -25t-10 -25t-25 -10t-25 10t-10 25z" />
    <glyph glyph-name="Aring" unicode="&#xc5;" 
d="M276 -4q-27 0 -27 28v472h-195v-472q0 -27 -28 -27q-27 0 -27 27v557q0 91 64.5 155.5t155.5 64.5h57q28 0 28 -27v-750q0 -28 -28 -28zM249 746h-30q-68 0 -116.5 -48t-48.5 -117v-30h195v195zM159 909q28 0 47.5 -14t19.5 -34q0 -19 -19.5 -33t-47.5 -14t-47.5 14
t-19.5 33q0 20 19.5 34t47.5 14zM159 881q-27 0 -27 -20q0 -19 27 -19t27 19q0 20 -27 20z" />
    <glyph glyph-name="Ccedilla" unicode="&#xc7;" horiz-adv-x="467" 
d="M121 8q26 -30 26 -71q0 -44 -32 -76q-7 -8 -17 -8q-26 0 -26 26q0 9 8 17q17 17 17 42q0 19 -14 37t-9 30h-47q-27 0 -27 27v619q0 151 152 151q153 0 153 -151q0 -27 -28 -27q-27 0 -27 27q0 54 -21.5 75.5t-76.5 21.5t-76 -21t-21 -76v-592h30q68 0 116.5 48t48.5 116
q0 1 -1 15t-1 23q1 46 29 46t29 -46q1 -9 0 -22q-1 -15 -1 -16q0 -80 -52.5 -141t-131.5 -74z" />
    <glyph glyph-name="Eacute" unicode="&#xc9;" horiz-adv-x="468" 
d="M305 220q0 -91 -64.5 -154.5t-155.5 -63.5h-58q-27 0 -27 27v619q0 151 152 151q153 0 153 -151q0 -28 -28 -28h-222v-564h30q68 0 116.5 48t48.5 116q0 1 -1 15t-1 23q1 46 29 46q29 0 29 -46q1 -9 0 -23t-1 -15zM152 744q-48 0 -69.5 -15.5t-26.5 -53.5h192
q-5 39 -26.5 54t-69.5 15zM223 929q0 -35 -24 -69q-27 -36 -61 -36q-24 0 -24 26q0 17 18 23q41 12 41 56q0 5 -1.5 13t-1.5 12q0 24 26 24q17 0 22 -16.5t5 -32.5z" />
    <glyph glyph-name="Ntilde" unicode="&#xd1;" horiz-adv-x="484" 
d="M276 3q-27 0 -27 27v551q0 68 -48.5 116t-116.5 48h-30v-715q0 -27 -28 -27q-27 0 -27 27v742q0 27 27 27h58q91 0 155.5 -63.5t64.5 -154.5v-551q0 -27 -28 -27zM-22 879q28 48 98 48q34 0 74 -19q43 -22 62 -24q35 -4 51 15q8 9 18 9q26 0 26 -25q0 -24 -40 -39
q-34 -12 -60 -10q-22 3 -59 22t-57 21q-53 5 -70 -24q-7 -12 -21 -12q-26 0 -26 25q0 6 4 13z" />
    <glyph glyph-name="Odieresis" unicode="&#xd6;" horiz-adv-x="489" 
d="M154 1q-153 0 -153 151v495q0 151 153 151q152 0 152 -151v-495q0 -151 -152 -151zM251 647q0 55 -21 76t-76 21t-76.5 -21t-21.5 -76v-495q0 -54 21.5 -75t76.5 -21t76 21t21 75v495zM47 857q0 15 10.5 25t24.5 10q15 0 25 -10t10 -25t-10 -25t-25 -10q-14 0 -24.5 10
t-10.5 25zM203 858q0 15 10 25t25 10t25 -10t10 -25t-10 -25t-25 -10t-25 10t-10 25z" />
    <glyph glyph-name="Udieresis" unicode="&#xdc;" horiz-adv-x="487" 
d="M278 -1h-58q-91 0 -155.5 64t-64.5 154v552q0 27 28 27q27 0 27 -27v-552q0 -67 48.5 -115t116.5 -48h30v715q0 27 28 27q27 0 27 -27v-742q0 -28 -27 -28zM47 857q0 15 10.5 25t24.5 10q15 0 25 -10t10 -25t-10 -25t-25 -10q-14 0 -24.5 10t-10.5 25zM203 858
q0 15 10 25t25 10t25 -10t10 -25t-10 -25t-25 -10t-25 10t-10 25z" />
    <glyph glyph-name="aacute" unicode="&#xe1;" 
d="M276 -4q-27 0 -27 28v472h-195v-472q0 -27 -28 -27q-27 0 -27 27v557q0 91 64.5 155.5t155.5 64.5h57q28 0 28 -27v-750q0 -28 -28 -28zM249 746h-30q-68 0 -116.5 -48t-48.5 -117v-30h195v195zM223 929q0 -35 -24 -69q-27 -36 -61 -36q-24 0 -24 26q0 17 18 23
q41 12 41 56q0 5 -1.5 13t-1.5 12q0 24 26 24q17 0 22 -16.5t5 -32.5z" />
    <glyph glyph-name="agrave" unicode="&#xe0;" 
d="M276 -4q-27 0 -27 28v472h-195v-472q0 -27 -28 -27q-27 0 -27 27v557q0 91 64.5 155.5t155.5 64.5h57q28 0 28 -27v-750q0 -28 -28 -28zM249 746h-30q-68 0 -116.5 -48t-48.5 -117v-30h195v195zM127 929q0 -35 26 -70t59 -35q25 0 25 26q0 17 -18 23q-42 12 -42 56
q0 5 2 13t2 12q0 24 -26 24q-18 0 -23 -16.5t-5 -32.5z" />
    <glyph glyph-name="acircumflex" unicode="&#xe2;" 
d="M276 -4q-27 0 -27 28v472h-195v-472q0 -27 -28 -27q-27 0 -27 27v557q0 91 64.5 155.5t155.5 64.5h57q28 0 28 -27v-750q0 -28 -28 -28zM249 746h-30q-68 0 -116.5 -48t-48.5 -117v-30h195v195zM164 969q27 0 27 -42q0 -31 16 -44q8 -6 30 -10t22 -25q0 -18 -23 -18
q-46 0 -71 30q-12 -14 -35 -23.5t-41 -7.5q-19 2 -19 19q0 16 18 23q29 11 33 13q18 14 18 46q0 39 25 39zM165 968z" />
    <glyph glyph-name="adieresis" unicode="&#xe4;" 
d="M276 -4q-27 0 -27 28v472h-195v-472q0 -27 -28 -27q-27 0 -27 27v557q0 91 64.5 155.5t155.5 64.5h57q28 0 28 -27v-750q0 -28 -28 -28zM249 746h-30q-68 0 -116.5 -48t-48.5 -117v-30h195v195zM47 857q0 15 10.5 25t24.5 10q15 0 25 -10t10 -25t-10 -25t-25 -10
q-14 0 -24.5 10t-10.5 25zM203 858q0 15 10 25t25 10t25 -10t10 -25t-10 -25t-25 -10t-25 10t-10 25z" />
    <glyph glyph-name="atilde" unicode="&#xe3;" 
d="M276 -4q-27 0 -27 28v472h-195v-472q0 -27 -28 -27q-27 0 -27 27v557q0 91 64.5 155.5t155.5 64.5h57q28 0 28 -27v-750q0 -28 -28 -28zM249 746h-30q-68 0 -116.5 -48t-48.5 -117v-30h195v195zM13 846q37 63 116 54q22 -2 39 -11.5t37 -11.5q15 -2 37 7q18 7 22 12
q8 10 19 10q26 0 26 -26q0 -9 -7 -16q-13 -15 -44 -27.5t-58 -9.5q-23 2 -40 12t-37 12q-37 4 -58 -19.5t-30 -23.5q-26 0 -26 25q0 6 4 13z" />
    <glyph glyph-name="aring" unicode="&#xe5;" 
d="M276 -4q-27 0 -27 28v472h-195v-472q0 -27 -28 -27q-27 0 -27 27v557q0 91 64.5 155.5t155.5 64.5h57q28 0 28 -27v-750q0 -28 -28 -28zM249 746h-30q-68 0 -116.5 -48t-48.5 -117v-30h195v195zM159 909q28 0 47.5 -14t19.5 -34q0 -19 -19.5 -33t-47.5 -14t-47.5 14
t-19.5 33q0 20 19.5 34t47.5 14zM159 881q-27 0 -27 -20q0 -19 27 -19t27 19q0 20 -27 20z" />
    <glyph glyph-name="ccedilla" unicode="&#xe7;" horiz-adv-x="467" 
d="M121 8q26 -30 26 -71q0 -44 -32 -76q-7 -8 -17 -8q-26 0 -26 26q0 9 8 17q17 17 17 42q0 19 -14 37t-9 30h-47q-27 0 -27 27v619q0 151 152 151q153 0 153 -151q0 -27 -28 -27q-27 0 -27 27q0 54 -21.5 75.5t-76.5 21.5t-76 -21t-21 -76v-592h30q68 0 116.5 48t48.5 116
q0 1 -1 15t-1 23q1 46 29 46t29 -46q1 -9 0 -22q-1 -15 -1 -16q0 -80 -52.5 -141t-131.5 -74z" />
    <glyph glyph-name="eacute" unicode="&#xe9;" horiz-adv-x="468" 
d="M305 220q0 -91 -64.5 -154.5t-155.5 -63.5h-58q-27 0 -27 27v619q0 151 152 151q153 0 153 -151q0 -28 -28 -28h-222v-564h30q68 0 116.5 48t48.5 116q0 1 -1 15t-1 23q1 46 29 46q29 0 29 -46q1 -9 0 -23t-1 -15zM152 744q-48 0 -69.5 -15.5t-26.5 -53.5h192
q-5 39 -26.5 54t-69.5 15zM223 929q0 -35 -24 -69q-27 -36 -61 -36q-24 0 -24 26q0 17 18 23q41 12 41 56q0 5 -1.5 13t-1.5 12q0 24 26 24q17 0 22 -16.5t5 -32.5z" />
    <glyph glyph-name="egrave" unicode="&#xe8;" horiz-adv-x="468" 
d="M305 220q0 -91 -64.5 -154.5t-155.5 -63.5h-58q-27 0 -27 27v619q0 151 152 151q153 0 153 -151q0 -28 -28 -28h-222v-564h30q68 0 116.5 48t48.5 116q0 1 -1 15t-1 23q1 46 29 46q29 0 29 -46q1 -9 0 -23t-1 -15zM152 744q-48 0 -69.5 -15.5t-26.5 -53.5h192
q-5 39 -26.5 54t-69.5 15zM127 929q0 -35 26 -70t59 -35q25 0 25 26q0 17 -18 23q-42 12 -42 56q0 5 2 13t2 12q0 24 -26 24q-18 0 -23 -16.5t-5 -32.5z" />
    <glyph glyph-name="ecircumflex" unicode="&#xea;" horiz-adv-x="468" 
d="M305 220q0 -91 -64.5 -154.5t-155.5 -63.5h-58q-27 0 -27 27v619q0 151 152 151q153 0 153 -151q0 -28 -28 -28h-222v-564h30q68 0 116.5 48t48.5 116q0 1 -1 15t-1 23q1 46 29 46q29 0 29 -46q1 -9 0 -23t-1 -15zM152 744q-48 0 -69.5 -15.5t-26.5 -53.5h192
q-5 39 -26.5 54t-69.5 15zM164 969q27 0 27 -42q0 -31 16 -44q8 -6 30 -10t22 -25q0 -18 -23 -18q-46 0 -71 30q-12 -14 -35 -23.5t-41 -7.5q-19 2 -19 19q0 16 18 23q29 11 33 13q18 14 18 46q0 39 25 39zM165 968z" />
    <glyph glyph-name="edieresis" unicode="&#xeb;" horiz-adv-x="468" 
d="M305 220q0 -91 -64.5 -154.5t-155.5 -63.5h-58q-27 0 -27 27v619q0 151 152 151q153 0 153 -151q0 -28 -28 -28h-222v-564h30q68 0 116.5 48t48.5 116q0 1 -1 15t-1 23q1 46 29 46q29 0 29 -46q1 -9 0 -23t-1 -15zM152 744q-48 0 -69.5 -15.5t-26.5 -53.5h192
q-5 39 -26.5 54t-69.5 15zM47 857q0 15 10.5 25t24.5 10q15 0 25 -10t10 -25t-10 -25t-25 -10q-14 0 -24.5 10t-10.5 25zM203 858q0 15 10 25t25 10t25 -10t10 -25t-10 -25t-25 -10t-25 10t-10 25z" />
    <glyph glyph-name="iacute" unicode="&#xed;" horiz-adv-x="394" 
d="M184 1q-28 0 -28 28v711q-30 -9 -50 -34.5t-20 -58.5q0 -27 -27 -27q-28 0 -28 27q0 63 45 107t108 44q27 0 27 -27v-742q0 -28 -27 -28zM223 929q0 -35 -24 -69q-27 -36 -61 -36q-24 0 -24 26q0 17 18 23q41 12 41 56q0 5 -1.5 13t-1.5 12q0 24 26 24q17 0 22 -16.5
t5 -32.5z" />
    <glyph glyph-name="igrave" unicode="&#xec;" horiz-adv-x="394" 
d="M184 1q-28 0 -28 28v711q-30 -9 -50 -34.5t-20 -58.5q0 -27 -27 -27q-28 0 -28 27q0 63 45 107t108 44q27 0 27 -27v-742q0 -28 -27 -28zM127 929q0 -35 26 -70t59 -35q25 0 25 26q0 17 -18 23q-42 12 -42 56q0 5 2 13t2 12q0 24 -26 24q-18 0 -23 -16.5t-5 -32.5z" />
    <glyph glyph-name="icircumflex" unicode="&#xee;" horiz-adv-x="394" 
d="M184 1q-28 0 -28 28v711q-30 -9 -50 -34.5t-20 -58.5q0 -27 -27 -27q-28 0 -28 27q0 63 45 107t108 44q27 0 27 -27v-742q0 -28 -27 -28z" />
    <glyph glyph-name="idieresis" unicode="&#xef;" horiz-adv-x="394" 
d="M47 857q0 15 10.5 25t24.5 10q15 0 25 -10t10 -25t-10 -25t-25 -10q-14 0 -24.5 10t-10.5 25zM203 858q0 15 10 25t25 10t25 -10t10 -25t-10 -25t-25 -10t-25 10t-10 25zM184 1q-28 0 -28 28v711q-30 -9 -50 -34.5t-20 -58.5q0 -27 -27 -27q-28 0 -28 27q0 63 45 107
t108 44q27 0 27 -27v-742q0 -28 -27 -28z" />
    <glyph glyph-name="ntilde" unicode="&#xf1;" horiz-adv-x="484" 
d="M276 3q-27 0 -27 27v551q0 68 -48.5 116t-116.5 48h-30v-715q0 -27 -28 -27q-27 0 -27 27v742q0 27 27 27h58q91 0 155.5 -63.5t64.5 -154.5v-551q0 -27 -28 -27zM-22 879q28 48 98 48q34 0 74 -19q43 -22 62 -24q35 -4 51 15q8 9 18 9q26 0 26 -25q0 -24 -40 -39
q-34 -12 -60 -10q-22 3 -59 22t-57 21q-53 5 -70 -24q-7 -12 -21 -12q-26 0 -26 25q0 6 4 13z" />
    <glyph glyph-name="oacute" unicode="&#xf3;" horiz-adv-x="488" 
d="M154 1q-153 0 -153 151v495q0 151 153 151q152 0 152 -151v-495q0 -151 -152 -151zM251 647q0 55 -21 76t-76 21t-76.5 -21t-21.5 -76v-495q0 -54 21.5 -75t76.5 -21t76 21t21 75v495zM223 929q0 -35 -24 -69q-27 -36 -61 -36q-24 0 -24 26q0 17 18 23q41 12 41 56
q0 5 -1.5 13t-1.5 12q0 24 26 24q17 0 22 -16.5t5 -32.5z" />
    <glyph glyph-name="ograve" unicode="&#xf2;" horiz-adv-x="489" 
d="M154 1q-153 0 -153 151v495q0 151 153 151q152 0 152 -151v-495q0 -151 -152 -151zM251 647q0 55 -21 76t-76 21t-76.5 -21t-21.5 -76v-495q0 -54 21.5 -75t76.5 -21t76 21t21 75v495zM127 929q0 -35 26 -70t59 -35q25 0 25 26q0 17 -18 23q-42 12 -42 56q0 5 2 13t2 12
q0 24 -26 24q-18 0 -23 -16.5t-5 -32.5z" />
    <glyph glyph-name="ocircumflex" unicode="&#xf4;" horiz-adv-x="488" 
d="M154 1q-153 0 -153 151v495q0 151 153 151q152 0 152 -151v-495q0 -151 -152 -151zM251 647q0 55 -21 76t-76 21t-76.5 -21t-21.5 -76v-495q0 -54 21.5 -75t76.5 -21t76 21t21 75v495zM164 969q27 0 27 -42q0 -31 16 -44q8 -6 30 -10t22 -25q0 -18 -23 -18q-46 0 -71 30
q-12 -14 -35 -23.5t-41 -7.5q-19 2 -19 19q0 16 18 23q29 11 33 13q18 14 18 46q0 39 25 39zM165 968z" />
    <glyph glyph-name="odieresis" unicode="&#xf6;" horiz-adv-x="489" 
d="M154 1q-153 0 -153 151v495q0 151 153 151q152 0 152 -151v-495q0 -151 -152 -151zM251 647q0 55 -21 76t-76 21t-76.5 -21t-21.5 -76v-495q0 -54 21.5 -75t76.5 -21t76 21t21 75v495zM47 857q0 15 10.5 25t24.5 10q15 0 25 -10t10 -25t-10 -25t-25 -10q-14 0 -24.5 10
t-10.5 25zM203 858q0 15 10 25t25 10t25 -10t10 -25t-10 -25t-25 -10t-25 10t-10 25z" />
    <glyph glyph-name="otilde" unicode="&#xf5;" horiz-adv-x="488" 
d="M154 1q-153 0 -153 151v495q0 151 153 151q152 0 152 -151v-495q0 -151 -152 -151zM251 647q0 55 -21 76t-76 21t-76.5 -21t-21.5 -76v-495q0 -54 21.5 -75t76.5 -21t76 21t21 75v495zM-22 879q28 48 98 48q34 0 74 -19q43 -22 62 -24q35 -4 51 15q8 9 18 9q26 0 26 -25
q0 -24 -40 -39q-34 -12 -60 -10q-22 3 -59 22t-57 21q-53 5 -70 -24q-7 -12 -21 -12q-26 0 -26 25q0 6 4 13z" />
    <glyph glyph-name="uacute" unicode="&#xfa;" horiz-adv-x="487" 
d="M278 -1h-58q-91 0 -155.5 64t-64.5 154v552q0 27 28 27q27 0 27 -27v-552q0 -67 48.5 -115t116.5 -48h30v715q0 27 28 27q27 0 27 -27v-742q0 -28 -27 -28zM223 929q0 -35 -24 -69q-27 -36 -61 -36q-24 0 -24 26q0 17 18 23q41 12 41 56q0 5 -1.5 13t-1.5 12q0 24 26 24
q17 0 22 -16.5t5 -32.5z" />
    <glyph glyph-name="ugrave" unicode="&#xf9;" horiz-adv-x="487" 
d="M278 -1h-58q-91 0 -155.5 64t-64.5 154v552q0 27 28 27q27 0 27 -27v-552q0 -67 48.5 -115t116.5 -48h30v715q0 27 28 27q27 0 27 -27v-742q0 -28 -27 -28zM127 929q0 -35 26 -70t59 -35q25 0 25 26q0 17 -18 23q-42 12 -42 56q0 5 2 13t2 12q0 24 -26 24
q-18 0 -23 -16.5t-5 -32.5z" />
    <glyph glyph-name="ucircumflex" unicode="&#xfb;" horiz-adv-x="487" 
d="M278 -1h-58q-91 0 -155.5 64t-64.5 154v552q0 27 28 27q27 0 27 -27v-552q0 -67 48.5 -115t116.5 -48h30v715q0 27 28 27q27 0 27 -27v-742q0 -28 -27 -28zM164 969q27 0 27 -42q0 -31 16 -44q8 -6 30 -10t22 -25q0 -18 -23 -18q-46 0 -71 30q-12 -14 -35 -23.5t-41 -7.5
q-19 2 -19 19q0 16 18 23q29 11 33 13q18 14 18 46q0 39 25 39zM165 968z" />
    <glyph glyph-name="udieresis" unicode="&#xfc;" horiz-adv-x="487" 
d="M278 -1h-58q-91 0 -155.5 64t-64.5 154v552q0 27 28 27q27 0 27 -27v-552q0 -67 48.5 -115t116.5 -48h30v715q0 27 28 27q27 0 27 -27v-742q0 -28 -27 -28zM47 857q0 15 10.5 25t24.5 10q15 0 25 -10t10 -25t-10 -25t-25 -10q-14 0 -24.5 10t-10.5 25zM203 858
q0 15 10 25t25 10t25 -10t10 -25t-10 -25t-25 -10t-25 10t-10 25z" />
    <glyph glyph-name="dagger" unicode="&#x2020;" horiz-adv-x="455" 
d="M117 157v196h-95q-25 0 -25 25t25 25h95v53q0 31 25 31t25 -31v-53h95q25 0 25 -25t-25 -25h-95v-196q0 -31 -25 -31t-25 31z" />
    <glyph glyph-name="degree" unicode="&#xb0;" horiz-adv-x="390" 
d="M125 798q34 0 59 -24.5t25 -59.5t-25 -59.5t-59 -24.5q-35 0 -59.5 24.5t-24.5 59.5t24.5 59.5t59.5 24.5zM125 748q-15 0 -24.5 -10t-9.5 -24t9.5 -24t24.5 -10q14 0 24 10t10 24t-10 24t-24 10z" />
    <glyph glyph-name="cent" unicode="&#xa2;" horiz-adv-x="470" 
d="M119 586v159q-35 -5 -49.5 -26.5t-14.5 -67.5v-592h30q17 0 34 4v153q0 25 25 25t25 -25v-133q81 47 81 140q0 1 -1 15t-1 23q1 46 29 46t29 -46q1 -9 0 -22q-1 -15 -1 -16q0 -67 -37.5 -121.5t-98.5 -79.5v-46q0 -25 -25 -25t-25 25v32q-17 -3 -34 -3h-58q-27 0 -27 27
v619q0 135 119 149v25q0 25 25 25t25 -25v-23q136 -8 136 -151q0 -27 -28 -27q-27 0 -27 27q0 50 -18 71.5t-63 24.5v-161q0 -25 -25 -25t-25 25z" />
    <glyph glyph-name="sterling" unicode="&#xa3;" horiz-adv-x="468" 
d="M277 620q-25 0 -28 32q-5 47 -12 60q-20 32 -85 32q-55 0 -76.5 -21t-21.5 -76v-96l102 2q27 0 27 -28t-26 -28l-103 -1v-442h29q68 0 116.5 48t48.5 116q0 6 -1 17.5t-1 17.5q0 49 29 49t29 -49q0 -108 -55 -177q-60 -76 -166 -76h-58q-27 0 -27 27l1 620q0 151 153 151
q152 0 152 -151q0 -27 -27 -27z" />
    <glyph glyph-name="bullet" unicode="&#x2022;" horiz-adv-x="394" 
d="M45 266q0 56 24.5 95.5t59.5 39.5t59.5 -39.5t24.5 -95.5t-24.5 -96t-59.5 -40t-59.5 40t-24.5 96z" />
    <glyph glyph-name="paragraph" unicode="&#xb6;" horiz-adv-x="586" 
d="M152 497q28 0 28 28q0 27 -28 27q-40 0 -68.5 28t-28.5 68t28.5 68.5t68.5 28.5h98v-715q0 -28 27 -28q28 0 28 28v742q0 27 -28 27h-125q-63 0 -107.5 -44t-44.5 -107q0 -62 44.5 -106.5t107.5 -44.5zM346 30l1 740q0 28 28 28q27 0 27 -28l-1 -740q0 -28 -27 -28
q-28 0 -28 28z" />
    <glyph glyph-name="germandbls" unicode="&#xdf;" horiz-adv-x="732" 
d="M248 518q-1 3 -1 6v124q0 13 1 25q-4 39 -26 55t-70 16q-55 0 -76.5 -21t-21.5 -76v-96h98q60 0 96 -33zM305 189q11 -57 56.5 -95t105.5 -38h30v241q0 98 -12 135q-21 65 -85 65h-126q-4 0 -9 1q39 -54 40 -189v-120zM552 29q0 -27 -28 -27h-57q-97 0 -162 71
q0 -26 -1 -44q0 -27 -27 -27h-57q-92 0 -156.5 63.5t-64.5 154.5v56q0 27 28 27t29 -45q0 -9 -1 -23t-1 -15q0 -68 48.5 -116t117.5 -48h29v131q-2 16 -2 33v57q0 6 2 11v8q0 98 -12 136q-20 65 -85 65h-125q-28 0 -28 27v123q0 151 153 151q87 0 124 -46q36 47 123 47
q153 0 153 -151q0 -27 -28 -27q-27 0 -27 27q0 54 -21.5 75t-76.5 21q-48 0 -69.5 -15.5t-26.5 -55.5q1 -12 1 -26q0 -6 -2 -11v-85h98q97 0 132 -87q20 -52 20 -155v-280z" />
    <glyph glyph-name="registered" unicode="&#xae;" horiz-adv-x="614" 
d="M164 442v-30q-3 -16 -21 -16q-21 0 -21 18v41q-53 22 -86 63q-36 45 -36 100q0 82 71 135q65 48 150 48q84 0 149 -48q72 -53 72 -135q0 -81 -72 -134q-65 -48 -149 -48q-29 0 -57 6zM332 547q0 -5 -6.5 -12t-12.5 -7q-5 0 -92 64q-4 8 -4 15q0 19 19 19q8 0 24 -14
q11 3 21 12.5t10 20.5q0 23 -28 27q-1 -1 -99 0v-179q27 -7 57 -7q63 0 113 34q58 38 58 98q0 61 -58 99q-50 34 -113 34t-114 -34q-57 -38 -57 -99q0 -68 72 -108v183q0 22 44 24h49q40 0 49 -1q30 -1 49.5 -21t19.5 -50q0 -37 -39 -60q38 -28 38 -38z" />
    <glyph glyph-name="copyright" unicode="&#xa9;" horiz-adv-x="617" 
d="M276 532zM287 517q-26 -11 -55 -11q-52 0 -91 31t-39 78t39 77.5t91 30.5q29 0 55 -10q14 -6 14 -20q0 -24 -22 -24q-6 0 -21.5 4.5t-25.5 4.5q-37 0 -61 -19.5t-24 -43.5q0 -25 23 -43q25 -21 62 -21q10 0 25.5 4.5t21.5 4.5q22 0 22 -23q0 -15 -14 -20zM221 801
q89 0 155 -52.5t66 -130.5q0 -77 -66 -129.5t-155 -52.5q-90 0 -154 51q-67 54 -67 131q0 78 67 131q64 52 154 52zM221 751q-73 0 -122 -40t-49 -93t49 -92.5t122 -39.5t122 39.5t49 92.5t-49 93t-122 40z" />
    <glyph glyph-name="trademark" unicode="&#x2122;" horiz-adv-x="706" 
d="M284 679v-140q0 -25 -25 -25t-25 25v210h-80v-212q0 -25 -25 -25t-25 25v212h-82q-25 0 -25 25t25 25h97q5 2 10 2q6 0 11 -2h104q7 4 15 4q24 0 27 -26l90 -156l92 160q2 22 25 22q27 0 27 -26q0 -5 -2 -10v-228q0 -25 -25 -25t-25 25v141l-67 -115q-11 -21 -25 -21
q-22 0 -26 21z" />
    <glyph glyph-name="acute" unicode="&#xb4;" horiz-adv-x="209" 
d="M223 929q0 -35 -24 -69q-27 -36 -61 -36q-24 0 -24 26q0 17 18 23q41 12 41 56q0 5 -1.5 13t-1.5 12q0 24 26 24q17 0 22 -16.5t5 -32.5z" />
    <glyph glyph-name="dieresis" unicode="&#xa8;" horiz-adv-x="255" 
d="M47 857q0 15 10.5 25t24.5 10q15 0 25 -10t10 -25t-10 -25t-25 -10q-14 0 -24.5 10t-10.5 25zM203 858q0 15 10 25t25 10t25 -10t10 -25t-10 -25t-25 -10t-25 10t-10 25z" />
    <glyph glyph-name="notequal" unicode="&#x2260;" horiz-adv-x="459" 
d="M53 15q-9 -15 -27 -15q-24 0 -24 18q0 6 4 12l60 93h-41q-25 0 -25 25t25 25h73l36 56h-109q-25 0 -25 25t25 25h142l69 108q10 15 28 15q24 0 24 -18q0 -5 -4 -11l-60 -94h40q25 0 25 -25t-25 -25h-72l-37 -56h109q25 0 25 -25t-25 -25h-141z" />
    <glyph glyph-name="AE" unicode="&#xc6;" horiz-adv-x="720" 
d="M252 746h-30q-68 0 -116.5 -48t-48.5 -117v-30h195v195zM557 220q0 -91 -64.5 -154.5t-155.5 -63.5h-41q-7 -6 -17 -6q-27 0 -27 28v472h-195v-472q0 -27 -28 -27q-27 0 -27 27v557q0 91 64.5 155.5t155.5 64.5h57q26 0 28 -26q36 24 98 24q152 0 152 -151q0 -28 -27 -28
h-223v-564h30q69 0 117 48t48 116v15q-1 14 -1 23q1 46 29 46t29 -46q0 -9 -1 -23t-1 -15zM405 744q-48 0 -69.5 -15.5t-26.5 -53.5h192q-5 39 -27 54t-69 15z" />
    <glyph glyph-name="Oslash" unicode="&#xd8;" horiz-adv-x="507" 
d="M251 390l-73 1l1 -332q41 3 56.5 23.5t15.5 69.5v238zM179 742l-1 -301l73 1v205q0 49 -15.5 70t-56.5 25zM56 442l72 -1l-2 301q-38 -4 -54 -25.5t-16 -69.5v-205zM1 393h-1q-25 0 -25 25t25 25h1v204q0 138 125 150v3q0 25 25 25t25 -25v-3q130 -9 130 -150v-204
q24 0 24 -25q0 -24 -24 -25v-241q0 -140 -130 -150q-2 -23 -25 -23q-24 0 -25 23q-125 13 -125 150v241zM126 57l2 334l-70 -1l-2 -238q0 -47 15.5 -68.5t54.5 -26.5z" />
    <glyph glyph-name="infinity" unicode="&#x221e;" horiz-adv-x="981" 
d="M797 316q0 -67 -28 -114q-29 -50 -77 -50q-22 0 -46 11l-253 123l-242 -123q-24 -12 -46 -12q-47 0 -77 51q-28 47 -28 114t28 114q30 51 77 51q22 0 46 -12l242 -128l253 128q24 12 46 12q47 0 77 -51q28 -47 28 -114zM448 314l198 -96q19 -9 35 -9q30 0 47 32
q15 28 15 75q0 46 -16 76.5t-46 30.5q-16 0 -35 -9zM151 414q-19 10 -35 10q-29 0 -45 -31t-16 -77t15 -75q17 -32 46 -32q17 0 35 9l189 96z" />
    <glyph glyph-name="plusminus" unicode="&#xb1;" horiz-adv-x="456" 
d="M117 103v98h-92q-25 0 -25 25t25 25h92v92q0 25 25 25t25 -25v-92h97q25 0 25 -25t-25 -25h-97v-98q0 -25 -25 -25t-25 25zM25 52h239q25 0 25 -25t-25 -25h-239q-25 0 -25 25t25 25z" />
    <glyph glyph-name="lessequal" unicode="&#x2264;" horiz-adv-x="589" 
d="M396 3q-22 0 -22 23q0 144 -102 245.5t-246 101.5q-23 0 -23 23q0 3 1 6q-4 26 22 26q144 0 246 102t102 246q0 22 22 22q23 0 23 -22q0 -130 -77 -233.5t-200 -141.5q123 -38 200 -142t77 -233q0 -23 -23 -23zM65 52h239q25 0 25 -25t-25 -25h-239q-25 0 -25 25t25 25z
" />
    <glyph glyph-name="greaterequal" unicode="&#x2265;" horiz-adv-x="550" 
d="M393 373q-143 0 -245 -101.5t-102 -245.5q0 -23 -23 -23q-22 0 -22 23q0 129 77 233t199 142q-123 38 -199.5 141.5t-76.5 233.5q0 22 22 22q23 0 23 -22q0 -144 101.5 -246t245.5 -102q26 0 22 -26q1 -3 1 -6q0 -23 -23 -23zM129 52h239q25 0 25 -25t-25 -25h-239
q-25 0 -25 25t25 25z" />
    <glyph glyph-name="yen" unicode="&#xa5;" horiz-adv-x="575" 
d="M143 450h107v56h-107q-25 0 -25 25t25 25h107v213q0 27 28 27q27 0 27 -27v-213h78q25 0 25 -25t-25 -25h-78v-56h77q25 0 25 -25t-25 -25h-77v-373q0 -27 -27 -27h-58q-91 0 -154.5 63.5t-65.5 154.5v23q-1 27 27 27q27 0 28 -27v-23q1 -68 49 -116t116 -48h30v193h-30
q-91 0 -155.5 64t-64.5 154v304q0 27 28 27q27 0 27 -27v-304q0 -68 48.5 -116t116.5 -48h30v99h-107q-25 0 -25 25t25 25z" />
    <glyph glyph-name="mu" unicode="&#xb5;" horiz-adv-x="570" 
d="M361 -1h-57q-91 0 -155.5 64t-64.5 154v552q0 27 27 27q28 0 28 -27v-552q0 -67 48.5 -115t116.5 -48h30v715q0 27 27 27q28 0 28 -27v-742q0 -28 -28 -28zM2 -48l1 821q0 28 28 28q27 0 27 -28l-1 -821q0 -28 -28 -28q-27 0 -27 28z" />
    <glyph glyph-name="mu" unicode="&#x3bc;" horiz-adv-x="570" 
d="M361 -1h-57q-91 0 -155.5 64t-64.5 154v552q0 27 27 27q28 0 28 -27v-552q0 -67 48.5 -115t116.5 -48h30v715q0 27 27 27q28 0 28 -27v-742q0 -28 -28 -28zM2 -48l1 821q0 28 28 28q27 0 27 -28l-1 -821q0 -28 -28 -28q-27 0 -27 28z" />
    <glyph glyph-name="partialdiff" unicode="&#x2202;" horiz-adv-x="480" 
d="M49 51l1 126q0 106 8 139q19 83 92 86l38 1q25 1 25 26t-25 24l-38 -1q-102 -4 -134 -100q-16 -50 -16 -175l-1 -151q0 -25 25 -25h58q90 0 153.5 63.5t63.5 154.5v432q0 150 -150 150t-150 -150q0 -25 25 -25t25 25q0 57 23 78.5t77 21.5t77 -21t23 -79v-432
q0 -70 -49 -119t-118 -49h-33z" />
    <glyph glyph-name="summation" unicode="&#x2211;" horiz-adv-x="242" 
 />
    <glyph glyph-name="product" unicode="&#x220f;" horiz-adv-x="501" 
d="M195 24l1 691q-21 12 -65 29l1 -717q0 -28 -29 -28t-29 28l1 717q-15 -4 -26.5 -18.5t-22.5 -14.5q-26 0 -26 25q0 7 4 13q28 49 98 49q33 0 64 -15q45 -22 56 -25q5 0 10 -2t6 -2q35 -3 51 15q8 9 18 9q26 0 26 -25q0 -20 -32 -35q-26 -12 -50 -14l-1 -677
q0 -29 -29 -29q-26 0 -26 26z" />
    <glyph glyph-name="pi" unicode="&#x3c0;" horiz-adv-x="501" 
d="M195 24l1 691q-21 12 -65 29l1 -717q0 -28 -29 -28t-29 28l1 717q-15 -4 -26.5 -18.5t-22.5 -14.5q-26 0 -26 25q0 7 4 13q28 49 98 49q33 0 64 -15q45 -22 56 -25q5 0 10 -2t6 -2q35 -3 51 15q8 9 18 9q26 0 26 -25q0 -20 -32 -35q-26 -12 -50 -14l-1 -677
q0 -29 -29 -29q-26 0 -26 26z" />
    <glyph glyph-name="questiondown" unicode="&#xbf;" horiz-adv-x="504" 
d="M139 742q0 23 16.5 40t40.5 17t41 -17t17 -40q0 -24 -17 -41t-41 -17t-40.5 17t-16.5 41zM14 284q0 27 26 27h129q45 0 61 54q10 36 10 114q0 71 0 70l-2 33q-112 -17 -112 -162q0 -27 -27 -27q-26 0 -26 27q0 101 46 158q50 63 148 63q28 0 29 -24l5 -75q2 -37 2 -69
q0 -125 -32 -170.5t-102 -45.5h-102v-102q0 -57 22.5 -79t79.5 -22t79.5 22t22.5 79q0 27 27 27q26 0 26 -27q0 -155 -155 -155t-155 155v129z" />
    <glyph glyph-name="exclamdown" unicode="&#xa1;" horiz-adv-x="382" 
d="M203 752q0 -20 -14.5 -34.5t-34.5 -14.5q-21 0 -35 14.5t-14 34.5q0 21 14 35t35 14q20 0 34.5 -14t14.5 -35zM159 -2q-27 0 -27 27l1 573q-31 -9 -50.5 -35t-19.5 -58q0 -27 -28 -27q-27 0 -27 27q0 62 44.5 106.5t107.5 44.5q28 0 28 -27l-1 -604q0 -27 -28 -27z" />
    <glyph glyph-name="radical" unicode="&#x221a;" horiz-adv-x="779" 
d="M249 127l329 639q7 14 21 14q27 0 27 -25q0 -6 -3 -12l-372 -721q-10 -19 -29 -19q-24 0 -24 34v47q0 72 -31 121q-36 57 -101 54q-6 -1 -13.5 -4.5t-11 -3.5t-12 -2t-11.5 -2q-11 0 -12 16q-2 34 36 40l17 1q76 4 129 -48q48 -49 61 -129z" />
    <glyph glyph-name="approxequal" unicode="&#x2248;" horiz-adv-x="507" 
d="M4 268q28 48 98 48q34 0 75.5 -20.5t60.5 -22.5q35 -4 51 15q8 9 18 9q26 0 26 -25q0 -24 -40 -39q-34 -13 -60 -10q-22 2 -59 21t-57 21q-53 6 -70 -23q-8 -12 -21 -12q-26 0 -26 24q0 7 4 14zM6 150q29 48 98 48q35 0 74 -19q43 -22 63 -24q34 -4 50 15q8 9 19 9
q26 0 26 -25q0 -24 -41 -39q-34 -12 -59 -10q-23 3 -60 22t-57 21q-53 5 -70 -24q-7 -12 -20 -12q-27 0 -27 25q0 6 4 13z" />
    <glyph glyph-name="approxequal" unicode="&#x22f2;" horiz-adv-x="507" 
d="M4 268q28 48 98 48q34 0 75.5 -20.5t60.5 -22.5q35 -4 51 15q8 9 18 9q26 0 26 -25q0 -24 -40 -39q-34 -13 -60 -10q-22 2 -59 21t-57 21q-53 6 -70 -23q-8 -12 -21 -12q-26 0 -26 24q0 7 4 14zM6 150q29 48 98 48q35 0 74 -19q43 -22 63 -24q34 -4 50 15q8 9 19 9
q26 0 26 -25q0 -24 -41 -39q-34 -12 -59 -10q-23 3 -60 22t-57 21q-53 5 -70 -24q-7 -12 -20 -12q-27 0 -27 25q0 6 4 13z" />
    <glyph glyph-name="Delta" unicode="&#x394;" horiz-adv-x="558" 
d="M177 777q4 21 25 21q20 0 25 -21l160 -737q5 -13 5 -18q0 -22 -26 -22h-340q-24 0 -24 19q0 5 5 23zM335 52l-132 601l-141 -601h273z" />
    <glyph glyph-name="Delta" unicode="&#x2206;" horiz-adv-x="558" 
d="M177 777q4 21 25 21q20 0 25 -21l160 -737q5 -13 5 -18q0 -22 -26 -22h-340q-24 0 -24 19q0 5 5 23zM335 52l-132 601l-141 -601h273z" />
    <glyph glyph-name="guillemotleft" unicode="&#xab;" horiz-adv-x="644" 
d="M0 214q0 33 29 33q65 0 111 46t46 111q0 29 28 29q29 0 29 -29q0 -59 -30 -109.5t-81 -78.5q51 -28 81 -78.5t30 -108.5q0 -29 -29 -29q-28 0 -28 29q0 64 -46 110t-111 46q-29 0 -29 29zM222 214q0 34 29 34q65 0 110.5 46t45.5 110q0 29 29 29t29 -29q0 -58 -30 -108.5
t-81 -78.5q51 -29 81 -79t30 -109q0 -29 -29 -29t-29 29q0 65 -46 110.5t-110 45.5q-29 0 -29 29z" />
    <glyph glyph-name="guillemotright" unicode="&#xbb;" horiz-adv-x="622" 
d="M465 214q0 33 -29 33q-65 0 -110.5 46t-45.5 111q0 29 -29 29t-29 -29q0 -59 30 -109.5t81 -78.5q-51 -28 -81 -78.5t-30 -108.5q0 -29 29 -29t29 29q0 64 45.5 110t110.5 46q29 0 29 29zM243 214q0 34 -29 34q-64 0 -110 46t-46 110q0 29 -29 29t-29 -29
q0 -58 30 -108.5t82 -78.5q-52 -29 -82 -79t-30 -109q0 -29 29 -29t29 29q0 65 46 110.5t110 45.5q29 0 29 29z" />
    <glyph glyph-name="ellipsis" unicode="&#x2026;" horiz-adv-x="698" 
d="M-1 47q0 21 14.5 35t34.5 14t34.5 -14t14.5 -35q0 -20 -14.5 -34.5t-34.5 -14.5t-34.5 14.5t-14.5 34.5zM205 49q0 20 14 34.5t35 14.5q20 0 34.5 -14.5t14.5 -34.5t-14.5 -34.5t-34.5 -14.5q-21 0 -35 14.5t-14 34.5zM413 48q0 21 14.5 35t34.5 14q21 0 35 -14t14 -35
q0 -20 -14 -34.5t-35 -14.5q-20 0 -34.5 14.5t-14.5 34.5z" />
    <glyph glyph-name="nonbreakingspace" unicode="&#xa0;" horiz-adv-x="242" 
 />
    <glyph glyph-name="Agrave" unicode="&#xc0;" 
d="M276 -4q-27 0 -27 28v472h-195v-472q0 -27 -28 -27q-27 0 -27 27v557q0 91 64.5 155.5t155.5 64.5h57q28 0 28 -27v-750q0 -28 -28 -28zM249 746h-30q-68 0 -116.5 -48t-48.5 -117v-30h195v195zM127 929q0 -35 26 -70t59 -35q25 0 25 26q0 17 -18 23q-42 12 -42 56
q0 5 2 13t2 12q0 24 -26 24q-18 0 -23 -16.5t-5 -32.5z" />
    <glyph glyph-name="Atilde" unicode="&#xc3;" 
d="M276 -4q-27 0 -27 28v472h-195v-472q0 -27 -28 -27q-27 0 -27 27v557q0 91 64.5 155.5t155.5 64.5h57q28 0 28 -27v-750q0 -28 -28 -28zM249 746h-30q-68 0 -116.5 -48t-48.5 -117v-30h195v195zM-22 879q28 48 98 48q34 0 74 -19q43 -22 62 -24q35 -4 51 15q8 9 18 9
q26 0 26 -25q0 -24 -40 -39q-34 -12 -60 -10q-22 3 -59 22t-57 21q-53 5 -70 -24q-7 -12 -21 -12q-26 0 -26 25q0 6 4 13z" />
    <glyph glyph-name="Otilde" unicode="&#xd5;" horiz-adv-x="485" 
d="M151 1q-153 0 -153 151v495q0 151 153 151q152 0 152 -151v-495q0 -151 -152 -151zM248 647q0 55 -21 76t-76 21t-76.5 -21t-21.5 -76v-495q0 -54 21.5 -75t76.5 -21t76 21t21 75v495zM-22 879q28 48 98 48q34 0 74 -19q43 -22 62 -24q35 -4 51 15q8 9 18 9q26 0 26 -25
q0 -24 -40 -39q-34 -12 -60 -10q-22 3 -59 22t-57 21q-53 5 -70 -24q-7 -12 -21 -12q-26 0 -26 25q0 6 4 13z" />
    <glyph glyph-name="OE" unicode="&#x152;" horiz-adv-x="721" 
d="M251 647q0 55 -21 76t-76 21t-76.5 -21t-21.5 -76v-495q0 -54 21.5 -75t76.5 -21t76 21t21 75v495zM1 152v495q0 151 153 151q90 0 126 -49q36 50 126 50q153 0 153 -151q0 -28 -28 -28h-222l-3 -562h30q69 0 118.5 47t49.5 115q0 1 -1 15t-1 23q1 46 29 46t29 -46v-23
q-1 -14 -1 -15q0 -91 -66 -156t-157 -65h-183q-152 0 -152 153zM406 744q-48 0 -69.5 -15.5t-26.5 -53.5h192q-5 39 -27 54t-69 15z" />
    <glyph glyph-name="endash" unicode="&#x2013;" horiz-adv-x="499" 
d="M24 182l266 1q25 0 25 -25t-25 -25l-266 -1q-25 0 -25 25t25 25z" />
    <glyph glyph-name="emdash" unicode="&#x2014;" horiz-adv-x="596" 
d="M24 182l363 1q25 0 25 -25t-25 -25l-363 -1q-25 0 -25 25t25 25z" />
    <glyph glyph-name="quotedblleft" unicode="&#x201c;" horiz-adv-x="362" 
d="M133 798q-32 -32 -32 -77t32 -77q8 -7 17 -7q26 0 26 25q0 10 -8 18q-17 17 -17 41t17 42q8 7 8 17q0 26 -26 26q-9 0 -17 -8zM32 799q-32 -32 -32 -77t32 -77q8 -7 18 -7q25 0 25 25q0 10 -7 18q-18 17 -18 41t18 42q7 7 7 17q0 26 -25 26q-10 0 -18 -8z" />
    <glyph glyph-name="quotedblright" unicode="&#x201d;" horiz-adv-x="453" 
d="M139 798q32 -32 32 -77t-32 -77q-8 -7 -17 -7q-26 0 -26 25q0 10 8 18q17 17 17 41t-17 42q-8 7 -8 17q0 26 26 26q9 0 17 -8zM240 799q31 -32 31 -77t-31 -77q-8 -7 -18 -7q-25 0 -25 25q0 10 7 18q17 17 17 41t-17 42q-7 7 -7 17q0 26 25 26q10 0 18 -8z" />
    <glyph glyph-name="quoteleft" unicode="&#x2018;" horiz-adv-x="304" 
d="M74 793q-31 -32 -31 -77t31 -77q8 -7 18 -7q26 0 26 25q0 10 -8 18q-17 17 -17 41t17 42q8 7 8 17q0 26 -26 26q-10 0 -18 -8z" />
    <glyph glyph-name="quoteright" unicode="&#x2019;" horiz-adv-x="313" 
d="M98 793q32 -32 32 -77t-32 -77q-8 -7 -17 -7q-26 0 -26 25q0 10 8 18q17 17 17 41t-17 42q-8 7 -8 17q0 26 26 26q9 0 17 -8z" />
    <glyph glyph-name="divide" unicode="&#xf7;" horiz-adv-x="451" 
d="M25 205h239q25 0 25 -25t-25 -25h-239q-25 0 -25 25t25 25zM108 73q0 16 11.5 27.5t27.5 11.5t27.5 -11.5t11.5 -27.5q0 -17 -11.5 -28.5t-27.5 -11.5t-27.5 11.5t-11.5 28.5zM106 289q0 17 11.5 28.5t28.5 11.5q16 0 27.5 -11.5t11.5 -28.5t-11.5 -28t-27.5 -11
q-17 0 -28.5 11.5t-11.5 27.5z" />
    <glyph glyph-name="ydieresis" unicode="&#xff;" horiz-adv-x="487" 
d="M47 857q0 15 10.5 25t24.5 10q15 0 25 -10t10 -25t-10 -25t-25 -10q-14 0 -24.5 10t-10.5 25zM203 858q0 15 10 25t25 10t25 -10t10 -25t-10 -25t-25 -10t-25 10t-10 25zM305 27q0 -27 -27 -27h-58q-91 0 -154.5 63.5t-65.5 154.5v23q-1 27 27 27q27 0 28 -27v-23
q1 -68 49 -116t116 -48h30v193h-30q-91 0 -155.5 64t-64.5 154v304q0 27 28 27q27 0 27 -27v-304q0 -68 48.5 -116t116.5 -48h30v468q0 27 28 27q27 0 27 -27v-742z" />
    <glyph glyph-name="Ydieresis" unicode="&#x178;" horiz-adv-x="487" 
d="M47 857q0 15 10.5 25t24.5 10q15 0 25 -10t10 -25t-10 -25t-25 -10q-14 0 -24.5 10t-10.5 25zM203 858q0 15 10 25t25 10t25 -10t10 -25t-10 -25t-25 -10t-25 10t-10 25zM305 27q0 -27 -27 -27h-58q-91 0 -154.5 63.5t-65.5 154.5v23q-1 27 27 27q27 0 28 -27v-23
q1 -68 49 -116t116 -48h30v193h-30q-91 0 -155.5 64t-64.5 154v304q0 27 28 27q27 0 27 -27v-304q0 -68 48.5 -116t116.5 -48h30v468q0 27 28 27q27 0 27 -27v-742z" />
    <glyph glyph-name="fraction" unicode="&#x2044;" horiz-adv-x="443" 
d="M41 1q-5 -17 -23 -17q-26 0 -26 24q0 4 1 8l242 776q5 18 23 18q26 0 26 -24q0 -4 -1 -9z" />
    <glyph glyph-name="guilsinglleft" unicode="&#x2039;" horiz-adv-x="422" 
d="M0 214q0 33 29 33q65 0 111 46t46 111q0 29 28 29q29 0 29 -29q0 -59 -30 -109.5t-81 -78.5q51 -28 81 -78.5t30 -108.5q0 -29 -29 -29q-28 0 -28 29q0 64 -46 110t-111 46q-29 0 -29 29z" />
    <glyph glyph-name="guilsinglright" unicode="&#x203a;" horiz-adv-x="570" 
d="M413 214q0 33 -29 33q-64 0 -110 46t-46 111q0 29 -29 29q-28 0 -28 -29q0 -59 29.5 -109.5t81.5 -78.5q-52 -28 -81.5 -78.5t-29.5 -108.5q0 -29 28 -29q29 0 29 29q0 64 46 110t110 46q29 0 29 29z" />
    <glyph glyph-name="fi" unicode="&#xf001;" horiz-adv-x="578" 
d="M371 -1q-11 0 -20 8t-9 20l1 524q-29 -9 -37 -25q-5 -10 -5 -44q0 -27 -27 -27q-30 0 -27 41h-193v-467q0 -28 -28 -28q-27 0 -27 28v618q0 151 153 151q152 0 152 -151q0 -27 -27 -27q-25 0 -28 32q-5 47 -12 60q-20 32 -85 32q-55 0 -76.5 -21t-21.5 -76v-96h205
q27 58 111 58q28 0 28 -27l1 -556q0 -27 -28 -27z" />
    <glyph glyph-name="fl" unicode="&#xf002;" horiz-adv-x="703" 
d="M554 218q0 -90 -64.5 -154t-156.5 -64h-57q-30 0 -30 24l2 472h-194v-467q0 -28 -28 -28q-27 0 -27 28v618q0 151 153 151q152 0 152 -151q0 -27 -27 -27q-28 0 -28 27q0 55 -21.5 76t-75.5 21q-55 0 -76.5 -21t-21.5 -76v-96h194v2q0 27 27 27q28 0 28 -27v-2h4
q28 0 28 -27t-28 -27h-4l1 -443h29q69 0 117.5 48t48.5 116q0 1 -1 15t-1 23q1 46 29 46t29 -46v-22q-1 -15 -1 -16z" />
    <glyph glyph-name="daggerdbl" unicode="&#x2021;" horiz-adv-x="452" 
d="M167 136h95q25 0 25 -25t-25 -25h-95q0 -58 1 -49q-3 -35 -26 -35q-22 0 -25 31v53h-95q-25 0 -25 25t25 25h95v217h-95q-25 0 -25 25t25 25h95q0 58 -1 49q3 35 26 35q21 0 25 -35v-49h95q25 0 25 -25t-25 -25h-94v-219z" />
    <glyph glyph-name="Acircumflex" unicode="&#xc2;" 
d="M276 -4q-27 0 -27 28v472h-195v-472q0 -27 -28 -27q-27 0 -27 27v557q0 91 64.5 155.5t155.5 64.5h57q28 0 28 -27v-750q0 -28 -28 -28zM249 746h-30q-68 0 -116.5 -48t-48.5 -117v-30h195v195zM164 969q27 0 27 -42q0 -31 16 -44q8 -6 30 -10t22 -25q0 -18 -23 -18
q-46 0 -71 30q-12 -14 -35 -23.5t-41 -7.5q-19 2 -19 19q0 16 18 23q29 11 33 13q18 14 18 46q0 39 25 39zM165 968z" />
    <glyph glyph-name="Ecircumflex" unicode="&#xca;" horiz-adv-x="468" 
d="M305 220q0 -91 -64.5 -154.5t-155.5 -63.5h-58q-27 0 -27 27v619q0 151 152 151q153 0 153 -151q0 -28 -28 -28h-222v-564h30q68 0 116.5 48t48.5 116q0 1 -1 15t-1 23q1 46 29 46q29 0 29 -46q1 -9 0 -23t-1 -15zM152 744q-48 0 -69.5 -15.5t-26.5 -53.5h192
q-5 39 -26.5 54t-69.5 15zM164 969q27 0 27 -42q0 -31 16 -44q8 -6 30 -10t22 -25q0 -18 -23 -18q-46 0 -71 30q-12 -14 -35 -23.5t-41 -7.5q-19 2 -19 19q0 16 18 23q29 11 33 13q18 14 18 46q0 39 25 39zM165 968z" />
    <glyph glyph-name="Aacute" unicode="&#xc1;" 
d="M276 -4q-27 0 -27 28v472h-195v-472q0 -27 -28 -27q-27 0 -27 27v557q0 91 64.5 155.5t155.5 64.5h57q28 0 28 -27v-750q0 -28 -28 -28zM249 746h-30q-68 0 -116.5 -48t-48.5 -117v-30h195v195zM223 929q0 -35 -24 -69q-27 -36 -61 -36q-24 0 -24 26q0 17 18 23
q41 12 41 56q0 5 -1.5 13t-1.5 12q0 24 26 24q17 0 22 -16.5t5 -32.5z" />
    <glyph glyph-name="Edieresis" unicode="&#xcb;" horiz-adv-x="468" 
d="M305 220q0 -91 -64.5 -154.5t-155.5 -63.5h-58q-27 0 -27 27v619q0 151 152 151q153 0 153 -151q0 -28 -28 -28h-222v-564h30q68 0 116.5 48t48.5 116q0 1 -1 15t-1 23q1 46 29 46q29 0 29 -46q1 -9 0 -23t-1 -15zM152 744q-48 0 -69.5 -15.5t-26.5 -53.5h192
q-5 39 -26.5 54t-69.5 15zM47 857q0 15 10.5 25t24.5 10q15 0 25 -10t10 -25t-10 -25t-25 -10q-14 0 -24.5 10t-10.5 25zM203 858q0 15 10 25t25 10t25 -10t10 -25t-10 -25t-25 -10t-25 10t-10 25z" />
    <glyph glyph-name="Egrave" unicode="&#xc8;" horiz-adv-x="468" 
d="M305 220q0 -91 -64.5 -154.5t-155.5 -63.5h-58q-27 0 -27 27v619q0 151 152 151q153 0 153 -151q0 -28 -28 -28h-222v-564h30q68 0 116.5 48t48.5 116q0 1 -1 15t-1 23q1 46 29 46q29 0 29 -46q1 -9 0 -23t-1 -15zM152 744q-48 0 -69.5 -15.5t-26.5 -53.5h192
q-5 39 -26.5 54t-69.5 15zM127 929q0 -35 26 -70t59 -35q25 0 25 26q0 17 -18 23q-42 12 -42 56q0 5 2 13t2 12q0 24 -26 24q-18 0 -23 -16.5t-5 -32.5z" />
    <glyph glyph-name="Iacute" unicode="&#xcd;" horiz-adv-x="394" 
d="M184 1q-28 0 -28 28v711q-30 -9 -50 -34.5t-20 -58.5q0 -27 -27 -27q-28 0 -28 27q0 63 45 107t108 44q27 0 27 -27v-742q0 -28 -27 -28zM223 929q0 -35 -24 -69q-27 -36 -61 -36q-24 0 -24 26q0 17 18 23q41 12 41 56q0 5 -1.5 13t-1.5 12q0 24 26 24q17 0 22 -16.5
t5 -32.5z" />
    <glyph glyph-name="Icircumflex" unicode="&#xce;" horiz-adv-x="394" 
d="M164 969q27 0 27 -42q0 -31 16 -44q8 -6 30 -10t22 -25q0 -18 -23 -18q-46 0 -71 30q-12 -14 -35 -23.5t-41 -7.5q-19 2 -19 19q0 16 18 23q29 11 33 13q18 14 18 46q0 39 25 39zM165 968zM184 1q-28 0 -28 28v711q-30 -9 -50 -34.5t-20 -58.5q0 -27 -27 -27
q-28 0 -28 27q0 63 45 107t108 44q27 0 27 -27v-742q0 -28 -27 -28z" />
    <glyph glyph-name="Idieresis" unicode="&#xcf;" horiz-adv-x="394" 
d="M47 857q0 15 10.5 25t24.5 10q15 0 25 -10t10 -25t-10 -25t-25 -10q-14 0 -24.5 10t-10.5 25zM203 858q0 15 10 25t25 10t25 -10t10 -25t-10 -25t-25 -10t-25 10t-10 25zM184 1q-28 0 -28 28v711q-30 -9 -50 -34.5t-20 -58.5q0 -27 -27 -27q-28 0 -28 27q0 63 45 107
t108 44q27 0 27 -27v-742q0 -28 -27 -28z" />
    <glyph glyph-name="Igrave" unicode="&#xcc;" horiz-adv-x="394" 
d="M184 1q-28 0 -28 28v711q-30 -9 -50 -34.5t-20 -58.5q0 -27 -27 -27q-28 0 -28 27q0 63 45 107t108 44q27 0 27 -27v-742q0 -28 -27 -28zM127 929q0 -35 26 -70t59 -35q25 0 25 26q0 17 -18 23q-42 12 -42 56q0 5 2 13t2 12q0 24 -26 24q-18 0 -23 -16.5t-5 -32.5z" />
    <glyph glyph-name="Oacute" unicode="&#xd3;" horiz-adv-x="485" 
d="M151 1q-153 0 -153 151v495q0 151 153 151q152 0 152 -151v-495q0 -151 -152 -151zM248 647q0 55 -21 76t-76 21t-76.5 -21t-21.5 -76v-495q0 -54 21.5 -75t76.5 -21t76 21t21 75v495zM223 929q0 -35 -24 -69q-27 -36 -61 -36q-24 0 -24 26q0 17 18 23q41 12 41 56
q0 5 -1.5 13t-1.5 12q0 24 26 24q17 0 22 -16.5t5 -32.5z" />
    <glyph glyph-name="Ocircumflex" unicode="&#xd4;" horiz-adv-x="485" 
d="M151 1q-153 0 -153 151v495q0 151 153 151q152 0 152 -151v-495q0 -151 -152 -151zM248 647q0 55 -21 76t-76 21t-76.5 -21t-21.5 -76v-495q0 -54 21.5 -75t76.5 -21t76 21t21 75v495zM164 969q27 0 27 -42q0 -31 16 -44q8 -6 30 -10t22 -25q0 -18 -23 -18q-46 0 -71 30
q-12 -14 -35 -23.5t-41 -7.5q-19 2 -19 19q0 16 18 23q29 11 33 13q18 14 18 46q0 39 25 39zM165 968z" />
    <glyph glyph-name="apple" unicode="&#xf000;" horiz-adv-x="653" 
d="M480 542q0 -1 -9 4q-14 7 -28 7q-29 0 -63 -30q-15 -13 -23.5 -38.5t-5.5 -46.5q7 -61 54 -61q24 0 53 15q-1 0 -10 -48q-11 -57 -20 -84.5t-27 -64.5q-19 -42 -28 -65l-21 -74q-16 -38 -59 -38q-6 0 -22.5 12t-24.5 12q-13 0 -30 -22t-38 -22q-31 0 -45 68
q-6 51 -13 102q-8 43 -27 82.5t-40 78.5q-53 102 -53 225q0 55 11 110q14 74 42 98q17 14 59 14q33 0 89 -41q11 -8 13 -36t12 -36q1 -1 4 5t5 7q9 0 26.5 3.5t49.5 30.5q28 23 56 23q35 0 70.5 -31t42.5 -67q2 -12 2 -36q0 -18 -1 -39t-1 -17zM354 814q-1 -5 -8.5 -10
t-8.5 -10q-14 -43 -86 -64q4 17 42 104q17 39 94 59q-30 -66 -33 -79z" />
    <glyph glyph-name="Ograve" unicode="&#xd2;" 
d="M151 1q-153 0 -153 151v495q0 151 153 151q152 0 152 -151v-495q0 -151 -152 -151zM248 647q0 55 -21 76t-76 21t-76.5 -21t-21.5 -76v-495q0 -54 21.5 -75t76.5 -21t76 21t21 75v495zM127 929q0 -35 26 -70t59 -35q25 0 25 26q0 17 -18 23q-42 12 -42 56q0 5 2 13t2 12
q0 24 -26 24q-18 0 -23 -16.5t-5 -32.5z" />
    <glyph glyph-name="Uacute" unicode="&#xda;" horiz-adv-x="487" 
d="M278 -1h-58q-91 0 -155.5 64t-64.5 154v552q0 27 28 27q27 0 27 -27v-552q0 -67 48.5 -115t116.5 -48h30v715q0 27 28 27q27 0 27 -27v-742q0 -28 -27 -28zM223 929q0 -35 -24 -69q-27 -36 -61 -36q-24 0 -24 26q0 17 18 23q41 12 41 56q0 5 -1.5 13t-1.5 12q0 24 26 24
q17 0 22 -16.5t5 -32.5z" />
    <glyph glyph-name="Ucircumflex" unicode="&#xdb;" horiz-adv-x="487" 
d="M278 -1h-58q-91 0 -155.5 64t-64.5 154v552q0 27 28 27q27 0 27 -27v-552q0 -67 48.5 -115t116.5 -48h30v715q0 27 28 27q27 0 27 -27v-742q0 -28 -27 -28zM164 969q27 0 27 -42q0 -31 16 -44q8 -6 30 -10t22 -25q0 -18 -23 -18q-46 0 -71 30q-12 -14 -35 -23.5t-41 -7.5
q-19 2 -19 19q0 16 18 23q29 11 33 13q18 14 18 46q0 39 25 39zM165 968z" />
    <glyph glyph-name="Ugrave" unicode="&#xd9;" horiz-adv-x="487" 
d="M278 -1h-58q-91 0 -155.5 64t-64.5 154v552q0 27 28 27q27 0 27 -27v-552q0 -67 48.5 -115t116.5 -48h30v715q0 27 28 27q27 0 27 -27v-742q0 -28 -27 -28zM127 929q0 -35 26 -70t59 -35q25 0 25 26q0 17 -18 23q-42 12 -42 56q0 5 2 13t2 12q0 24 -26 24
q-18 0 -23 -16.5t-5 -32.5z" />
    <glyph glyph-name="circumflex" unicode="&#x2c6;" horiz-adv-x="242" 
d="M164 969q27 0 27 -42q0 -31 16 -44q8 -6 30 -10t22 -25q0 -18 -23 -18q-46 0 -71 30q-12 -14 -35 -23.5t-41 -7.5q-19 2 -19 19q0 16 18 23q29 11 33 13q18 14 18 46q0 39 25 39zM165 968z" />
    <glyph glyph-name="breve" unicode="&#x2d8;" horiz-adv-x="238" 
d="M247 864q-31 -32 -76 -32t-77 32q-8 8 -8 18q0 25 26 25q9 0 17 -7q17 -18 42 -18q24 0 41 18q8 7 18 7q25 0 25 -25q0 -10 -8 -18z" />
    <glyph glyph-name="ring" unicode="&#x2da;" horiz-adv-x="211" 
d="M159 909q28 0 47.5 -14t19.5 -34q0 -19 -19.5 -33t-47.5 -14t-47.5 14t-19.5 33q0 20 19.5 34t47.5 14zM159 881q-27 0 -27 -20q0 -19 27 -19t27 19q0 20 -27 20z" />
    <glyph glyph-name="caron" unicode="&#x2c7;" horiz-adv-x="238" 
d="M247 864q-31 -32 -76 -32t-77 32q-8 8 -8 18q0 25 26 25q9 0 17 -7q17 -18 42 -18q24 0 41 18q8 7 18 7q25 0 25 -25q0 -10 -8 -18z" />
    <glyph glyph-name="Lslash" unicode="&#x141;" horiz-adv-x="460" 
d="M-33 214q-8 -10 -20 -10q-26 0 -26 25q0 8 6 15l74 101v425q0 27 27 27q28 0 28 -27v-349l49 68q8 10 20 10q26 0 26 -25q0 -8 -5 -15l-90 -123v-282h30q68 0 116.5 48t48.5 116q0 1 -1 15t-1 23q1 46 29 46t29 -46v-22q-1 -15 -1 -16q0 -90 -64.5 -154t-155.5 -64h-58
q-27 0 -27 27v234z" />
    <glyph glyph-name="lslash" unicode="&#x142;" horiz-adv-x="460" 
d="M-33 214q-8 -10 -20 -10q-26 0 -26 25q0 8 6 15l74 101v425q0 27 27 27q28 0 28 -27v-349l49 68q8 10 20 10q26 0 26 -25q0 -8 -5 -15l-90 -123v-282h30q68 0 116.5 48t48.5 116q0 1 -1 15t-1 23q1 46 29 46t29 -46v-22q-1 -15 -1 -16q0 -90 -64.5 -154t-155.5 -64h-58
q-27 0 -27 27v234z" />
    <glyph glyph-name="Scaron" unicode="&#x160;" horiz-adv-x="484" 
d="M304 29q0 -27 -27 -27h-57q-92 0 -156.5 63.5t-64.5 154.5v56q0 27 28 27t29 -45q0 -9 -1 -23t-1 -15q0 -68 48.5 -116t117.5 -48h29v240q0 98 -12 136q-20 65 -85 65h-125q-28 0 -28 27v123q0 151 153 151q152 0 152 -151q0 -27 -27 -27q-28 0 -28 27q0 55 -21 76
t-76 21t-76.5 -21t-21.5 -76v-96h98q97 0 132 -87q21 -52 21 -155zM247 864q-31 -32 -76 -32t-77 32q-8 8 -8 18q0 25 26 25q9 0 17 -7q17 -18 42 -18q24 0 41 18q8 7 18 7q25 0 25 -25q0 -10 -8 -18z" />
    <glyph glyph-name="scaron" unicode="&#x161;" horiz-adv-x="484" 
d="M304 29q0 -27 -27 -27h-57q-92 0 -156.5 63.5t-64.5 154.5v56q0 27 28 27t29 -45q0 -9 -1 -23t-1 -15q0 -68 48.5 -116t117.5 -48h29v240q0 98 -12 136q-20 65 -85 65h-125q-28 0 -28 27v123q0 151 153 151q152 0 152 -151q0 -27 -27 -27q-28 0 -28 27q0 55 -21 76
t-76 21t-76.5 -21t-21.5 -76v-96h98q97 0 132 -87q21 -52 21 -155zM247 864q-31 -32 -76 -32t-77 32q-8 8 -8 18q0 25 26 25q9 0 17 -7q17 -18 42 -18q24 0 41 18q8 7 18 7q25 0 25 -25q0 -10 -8 -18z" />
    <glyph glyph-name="Zcaron" unicode="&#x17d;" horiz-adv-x="476" 
d="M302 218q0 -90 -64.5 -154t-155.5 -64h-57q-28 0 -28 27q0 4 2 9l238 707h-20q-68 0 -116.5 -48t-48.5 -116v-56q0 -28 -27 -28q-28 0 -28 28v56q0 91 64.5 154.5t155.5 63.5h58q27 0 27 -26q0 -5 -1 -10l-238 -706h19q69 0 117 48t48 115v57q0 27 28 27q27 0 27 -27v-57
zM247 864q-31 -32 -76 -32t-77 32q-8 8 -8 18q0 25 26 25q9 0 17 -7q17 -18 42 -18q24 0 41 18q8 7 18 7q25 0 25 -25q0 -10 -8 -18z" />
    <glyph glyph-name="zcaron" unicode="&#x17e;" horiz-adv-x="476" 
d="M302 218q0 -90 -64.5 -154t-155.5 -64h-57q-28 0 -28 27q0 4 2 9l238 707h-20q-68 0 -116.5 -48t-48.5 -116v-56q0 -28 -27 -28q-28 0 -28 28v56q0 91 64.5 154.5t155.5 63.5h58q27 0 27 -26q0 -5 -1 -10l-238 -706h19q69 0 117 48t48 115v57q0 27 28 27q27 0 27 -27v-57
zM247 864q-31 -32 -76 -32t-77 32q-8 8 -8 18q0 25 26 25q9 0 17 -7q17 -18 42 -18q24 0 41 18q8 7 18 7q25 0 25 -25q0 -10 -8 -18z" />
    <glyph glyph-name="brokenbar" unicode="&#xa6;" horiz-adv-x="352" 
d="M119 28v240q0 25 25 25t25 -25v-240q0 -25 -25 -25t-25 25zM119 363v240q0 25 25 25t25 -25v-240q0 -25 -25 -25t-25 25z" />
    <glyph glyph-name="Eth" unicode="&#xd0;" horiz-adv-x="483" 
d="M53 438h133q25 0 25 -25t-25 -25h-133v-332h97q53 0 75.5 20.5t22.5 76.5v428q0 67 -48.5 115t-117.5 48h-29v-306zM-53 438h51v333q0 28 27 28h57q92 0 156.5 -64t64.5 -154v-428q0 -133 -112 -149q-15 -2 -41 -2h-125q-27 0 -27 27v359h-51q-25 0 -25 25t25 25z" />
    <glyph glyph-name="eth" unicode="&#xf0;" horiz-adv-x="483" 
d="M53 438h133q25 0 25 -25t-25 -25h-133v-332h97q53 0 75.5 20.5t22.5 76.5v428q0 67 -48.5 115t-117.5 48h-29v-306zM-53 438h51v333q0 28 27 28h57q92 0 156.5 -64t64.5 -154v-428q0 -133 -112 -149q-15 -2 -41 -2h-125q-27 0 -27 27v359h-51q-25 0 -25 25t25 25z" />
    <glyph glyph-name="Yacute" unicode="&#xdd;" horiz-adv-x="487" 
d="M305 27q0 -27 -27 -27h-58q-91 0 -154.5 63.5t-65.5 154.5v23q-1 27 27 27q27 0 28 -27v-23q1 -68 49 -116t116 -48h30v193h-30q-91 0 -155.5 64t-64.5 154v304q0 27 28 27q27 0 27 -27v-304q0 -68 48.5 -116t116.5 -48h30v468q0 27 28 27q27 0 27 -27v-742zM223 929
q0 -35 -24 -69q-27 -36 -61 -36q-24 0 -24 26q0 17 18 23q41 12 41 56q0 5 -1.5 13t-1.5 12q0 24 26 24q17 0 22 -16.5t5 -32.5z" />
    <glyph glyph-name="minus" unicode="&#xad;" horiz-adv-x="474" 
d="M25 173h239q25 0 25 -25t-25 -25h-239q-25 0 -25 25t25 25z" />
    <glyph glyph-name="minus" unicode="&#x2212;" horiz-adv-x="474" 
d="M25 173h239q25 0 25 -25t-25 -25h-239q-25 0 -25 25t25 25z" />
    <glyph glyph-name="qu" horiz-adv-x="736" 
d="M553 29q1 -11 -7.5 -19t-19.5 -8h-58q-107 0 -173 84q-27 -85 -144 -85q-153 0 -153 151v495q0 151 153 151q152 0 152 -151v-419h103q25 0 25 -26q0 -28 -25 -28l-97 -1q14 -51 59.5 -83.5t99.5 -32.5h30l-26 653q-1 27 27 27q27 0 28 -27zM253 148v26h-95
q-16 -1 -24.5 6t-7.5 22q2 24 32 26h93v419q0 50 -18 71q-22 26 -82 26q-97 -1 -97 -92v-500q0 -50 22 -73t75 -23q100 0 102 92z" />
  </font>
</defs>
</svg>
