<svg id="Layer_1" data-name="Layer 1" xmlns="http://www.w3.org/2000/svg" viewBox="0 0 144 144"><defs><style>.cls-1{fill:#4267b2;}.cls-2{fill:#fff;}</style></defs><title>flogo_RGB_HEX-144</title><path class="cls-1" d="M136.05,0H8A8,8,0,0,0,0,8v128.1A8,8,0,0,0,8,144h69V88.31H58.22V66.52h18.7v-16c0-18.6,11.36-28.73,28-28.73a155.76,155.76,0,0,1,16.77.85V42H110.2c-9,0-10.78,4.29-10.78,10.58V66.52H121L118.2,88.31H99.42V144h36.63a8,8,0,0,0,7.95-7.95V8A8,8,0,0,0,136.05,0Z"/><path id="f" class="cls-2" d="M99.42,144V88.31H118.2L121,66.52H99.42V52.63c0-6.29,1.75-10.58,10.78-10.58h11.44V22.6a155.76,155.76,0,0,0-16.77-.85c-16.59,0-27.95,10.13-27.95,28.73v16H58.22V88.31h18.7V144Z"/></svg>